<?xml version="1.0" encoding="UTF-8" standalone="no"?>
<svg
   xmlns:dc="http://purl.org/dc/elements/1.1/"
   xmlns:cc="http://creativecommons.org/ns#"
   xmlns:rdf="http://www.w3.org/1999/02/22-rdf-syntax-ns#"
   xmlns:svg="http://www.w3.org/2000/svg"
   xmlns="http://www.w3.org/2000/svg"
   xmlns:sodipodi="http://sodipodi.sourceforge.net/DTD/sodipodi-0.dtd"
   xmlns:inkscape="http://www.inkscape.org/namespaces/inkscape"
   width="300"
   height="300"
   viewBox="0 0 79.374999 79.375002"
   version="1.1"
   id="svg844"
   inkscape:version="1.0.1 (3bc2e813f5, 2020-09-07)"
   sodipodi:docname="BB.svg">
  <defs
     id="defs838" />
  <sodipodi:namedview
     id="base"
     pagecolor="#ffffff"
     bordercolor="#666666"
     borderopacity="1.0"
     inkscape:pageopacity="0.0"
     inkscape:pageshadow="2"
     inkscape:zoom="1.4"
     inkscape:cx="192.31643"
     inkscape:cy="187.72763"
     inkscape:document-units="mm"
     inkscape:current-layer="layer1"
     inkscape:document-rotation="0"
     showgrid="false"
     units="px"
     inkscape:window-width="1431"
     inkscape:window-height="1030"
     inkscape:window-x="128"
     inkscape:window-y="0"
     inkscape:window-maximized="0" />
  <metadata
     id="metadata841">
    <rdf:RDF>
      <cc:Work
         rdf:about="">
        <dc:format>image/svg+xml</dc:format>
        <dc:type
           rdf:resource="http://purl.org/dc/dcmitype/StillImage" />
        <dc:title></dc:title>
      </cc:Work>
    </rdf:RDF>
  </metadata>
  <g
     inkscape:label="Layer 1"
     inkscape:groupmode="layer"
     id="layer1">
    <path
       style="fill:#000000;fill-opacity:1;stroke:#ffffff;stroke-width:0.370566"
       id="path1407"
       sodipodi:type="arc"
       sodipodi:cx="37.929913"
       sodipodi:cy="25.702381"
       sodipodi:rx="4.0847287"
       sodipodi:ry="3.6122627"
       sodipodi:start="3.1504066"
       sodipodi:end="3.1362345"
       sodipodi:open="true"
       sodipodi:arc-type="arc"
       d="m 33.845343,25.670543 a 4.0847287,3.6122627 0 0 1 4.1061,-3.580374 4.0847287,3.6122627 0 0 1 4.063192,3.618454 4.0847287,3.6122627 0 0 1 -4.077308,3.606015 4.0847287,3.6122627 0 0 1 -4.092085,-3.592902" />
    <path
       style="fill:#000000;fill-opacity:1;stroke:none;stroke-width:0.35662"
       id="path1409"
       sodipodi:type="arc"
       sodipodi:cx="37.797619"
       sodipodi:cy="34.948807"
       sodipodi:rx="2.8348215"
       sodipodi:ry="7.1675563"
       sodipodi:start="3.1504066"
       sodipodi:end="3.1362345"
       sodipodi:open="true"
       sodipodi:arc-type="arc"
       d="m 34.962908,34.885633 a 2.8348215,7.1675563 0 0 1 2.849653,-7.104283 2.8348215,7.1675563 0 0 1 2.819875,7.179842 2.8348215,7.1675563 0 0 1 -2.829672,7.155159 2.8348215,7.1675563 0 0 1 -2.839926,-7.12914" />
    <path
       style="fill:#000000;fill-opacity:1;stroke:none;stroke-width:0.397044"
       id="path1411"
       sodipodi:type="arc"
       sodipodi:cx="37.81654"
       sodipodi:cy="46.125301"
       sodipodi:rx="1.7953666"
       sodipodi:ry="11.13809"
       sodipodi:start="3.1504066"
       sodipodi:end="3.1362345"
       sodipodi:open="true"
       sodipodi:arc-type="arc"
       d="m 36.021243,46.027132 a 1.7953666,11.13809 0 0 1 1.80476,-11.039766 1.7953666,11.13809 0 0 1 1.785901,11.157181 1.7953666,11.13809 0 0 1 -1.792105,11.118826 1.7953666,11.13809 0 0 1 -1.7986,-11.078392" />
  </g>
</svg>
