<?xml version="1.0" encoding="UTF-8" standalone="no"?>
<svg
   xmlns:dc="http://purl.org/dc/elements/1.1/"
   xmlns:cc="http://creativecommons.org/ns#"
   xmlns:rdf="http://www.w3.org/1999/02/22-rdf-syntax-ns#"
   xmlns:svg="http://www.w3.org/2000/svg"
   xmlns="http://www.w3.org/2000/svg"
   xmlns:sodipodi="http://sodipodi.sourceforge.net/DTD/sodipodi-0.dtd"
   xmlns:inkscape="http://www.inkscape.org/namespaces/inkscape"
   version="1.1"
   id="Layer_1"
   x="0px"
   y="0px"
   width="300"
   height="250"
   viewBox="0 0 300 250"
   xml:space="preserve"
   sodipodi:docname="butter.svg"
   inkscape:version="1.0.1 (3bc2e813f5, 2020-09-07)"><metadata
   id="metadata13"><rdf:RDF><cc:Work
       rdf:about=""><dc:format>image/svg+xml</dc:format><dc:type
         rdf:resource="http://purl.org/dc/dcmitype/StillImage" /><dc:title></dc:title></cc:Work></rdf:RDF></metadata><defs
   id="defs11" /><sodipodi:namedview
   pagecolor="#ffffff"
   bordercolor="#666666"
   borderopacity="1"
   objecttolerance="10"
   gridtolerance="10"
   guidetolerance="10"
   inkscape:pageopacity="0"
   inkscape:pageshadow="2"
   inkscape:window-width="1920"
   inkscape:window-height="1001"
   id="namedview9"
   showgrid="false"
   inkscape:zoom="1.3833333"
   inkscape:cx="245.68819"
   inkscape:cy="239.13244"
   inkscape:window-x="-9"
   inkscape:window-y="-9"
   inkscape:window-maximized="1"
   inkscape:current-layer="Layer_1" />
<style
   type="text/css"
   id="style2">
	.st0{fill:#E68800;}
</style>
<path
   class="st0"
   d="m 263.2025,72.550639 c 0,-0.12606 -0.0358,-0.25212 -0.0716,-0.34667 6.33941,-9.20238 9.70609,-20.32717 8.38091,-26.94531 0,-1.8909 -0.39398,-3.75029 -1.11029,-5.54664 -0.17908,-0.4097 -0.46561,-0.69333 -0.82377,-0.85091 -0.21489,-0.2206 -0.57305,-0.37818 -1.00284,-0.40969 -2.82945,-0.22061 -5.62309,-0.12606 -8.38091,0.18909 -0.93121,0.0315 -1.8266,0.12606 -2.75782,0.2206 -1.361,0.15758 -2.61455,0.56727 -3.79647,1.13454 -2.36385,0.69333 -4.62025,1.60727 -6.80501,2.71029 -4.26209,0.97697 -11.38944,4.79028 -19.87779,10.17934 -2.43548,0.0315 -4.72769,0.72485 -6.91246,1.63878 -4.22627,1.07151 -7.95111,3.1515 -11.17454,5.86179 -0.17908,0.0945 -0.32234,0.25212 -0.46561,0.4097 -0.21489,0.18909 -0.42979,0.37818 -0.60886,0.56727 -0.46561,0.37818 -0.93122,0.75635 -1.36101,1.19756 -0.53723,0.53576 -1.03866,1.07151 -1.54008,1.54424 -0.82376,0.59878 -1.61171,1.16605 -2.39966,1.76484 -1.11029,0.66181 -2.14895,1.35514 -3.08016,2.23756 -0.82376,0.78788 -1.61171,1.63878 -2.54292,2.33211 -0.46561,0.28364 -0.8954,0.56727 -1.32519,0.85091 -0.53724,0.15757 -0.85958,0.47272 -1.03866,0.8509 -0.82376,0.56727 -1.61171,1.22909 -2.32803,1.95393 -0.8954,0.91394 -1.71916,1.92242 -2.50711,2.9309 -0.64468,0.50424 -1.1461,1.16605 -1.68334,1.79635 -0.28653,0.34666 -0.60887,0.69333 -0.8954,1.03999 -1.25355,0.94545 -2.43548,1.92242 -3.47413,3.05696 -0.0716,0.063 -0.10745,0.15757 -0.17908,0.2206 -3.50996,3.27756 -7.05572,6.52361 -10.56568,9.80117 -3.33087,3.05695 -6.69756,6.14542 -8.98977,9.895701 0,0.0315 0,0.0315 -0.0358,0.063 -1.86242,1.10303 -3.00853,3.75029 -4.01137,5.16846 -0.75213,1.07151 -1.32519,2.01696 -2.65037,2.58423 -0.96703,0.40969 -1.96987,0.72484 -2.97272,1.03999 -0.0716,0 -0.14326,-0.0315 -0.21489,-0.0315 -1.21774,-0.15758 -2.43548,-0.37818 -3.65322,-0.56727 -1.00284,-0.4097 -1.93405,-0.97697 -2.82945,-1.60727 -0.53724,-0.72484 -1.11029,-1.44968 -1.68334,-2.14301 -0.39398,-0.44121 -0.75213,-0.91394 -1.14611,-1.35515 -0.75213,-0.88242 -1.5759,-1.76484 -2.39966,-2.61574 -0.93121,-1.38666 -2.00569,-2.71029 -3.25924,-3.907861 -0.2149,-0.22061 -0.46561,-0.34667 -0.71632,-0.4097 -6.41103,-5.29452 -14.97102,-11.62903 -24.2115,-17.99506 -2.68619,-5.51512 -8.16601,-9.73813 -14.827758,-11.21933 -0.46561,-0.59879 -0.93121,-1.19757 -1.39682,-1.79636 -1.68334,-2.20605 -3.47413,-4.19149 -5.94543,-5.70421 -2.39966,-1.4812 -5.12166,-2.5212 -7.80785,-3.52968 -2.722,-1.03999 -5.51564,-1.85938 -8.48835,-1.70181 -8.88233,-4.85331 -16.33202,-8.1939 -20.62992,-8.91874 -2.2564,-0.97697 -4.62025,-1.73333 -7.01991,-2.30059 -1.21774,-0.47273 -2.54292,-0.78788 -3.90392,-0.88242 -0.93121,-0.063 -1.82661,-0.063 -2.75782,-0.063 -2.75782,-0.15758 -5.55146,-0.063 -8.34509,0.31515 -0.46561,0.063 -0.78795,0.25212 -0.96703,0.47272 -0.32234,0.18909 -0.60887,0.47273 -0.75213,0.91393 -0.57306,1.82787 -0.78795,3.71877 -0.64469,5.60967 -0.78795,6.68118 3.47414,17.58537 10.52986,26.34653 -0.0358,0.12606 -0.0358,0.22061 -0.0358,0.37818 0,0.85091 0.14327,1.6703 0.35816,2.48969 0,0.0945 0,0.18909 0.0358,0.25212 -0.10745,0.18909 -0.14327,0.44121 -0.10745,0.72484 0.10745,0.66182 0.28653,1.29212 0.53724,1.8909 0.17908,0.88242 0.42979,1.76484 0.71631,2.61575 0.0358,0.0945 0.0358,0.18909 0.10745,0.28363 0.8954,2.71029 2.18477,5.35755 3.6174,7.91026 v 0 c -0.0358,3.27756 0.82376,6.366031 2.54292,9.265411 0.25072,0.44121 0.64469,0.66182 1.03866,0.75636 1.46845,2.3006 1.5759,4.91634 1.32519,7.53208 -0.28653,3.08847 -1.18192,6.01937 0.39397,8.98178 1.43264,2.67877 3.76067,5.13694 5.94543,7.3745 2.2564,2.3006 4.76351,4.4121 7.41388,6.33452 -0.14326,1.13454 -0.21489,2.48968 -0.28653,4.22301 -0.10744,2.52119 -0.21489,4.06543 -0.50142,5.23148 0,0.0315 0,0.063 0,0.0945 -0.0358,0.69333 -0.14326,1.38666 -0.25071,2.07999 0,0.6303 -0.0716,1.22908 -0.17908,1.82787 0,0.2206 0,0.40969 0,0.6303 0.17908,0.59878 0.32235,1.41817 0.46561,2.58423 0.0716,0.59878 0.14326,1.10302 0.25071,1.54423 -0.25071,0.25212 -0.39397,0.59879 -0.35816,0.94545 0.17908,1.32363 0.60887,2.5212 1.361,3.65574 -0.71631,3.40362 1.18193,7.75269 4.22627,9.10783 l 0.64469,0.28364 0.14326,0.94545 c 0.53724,3.24604 3.90393,7.18541 7.05572,8.22541 1.71916,0.56727 2.43548,0.97696 4.11882,2.48968 1.96987,1.76484 2.47129,2.04848 4.08301,2.17454 1.61171,0.15757 2.29221,0.37818 3.29505,1.07151 2.90109,2.04847 2.86527,2.04847 4.58443,1.82787 1.79079,-0.22061 2.722,0.063 6.339398,1.8909 1.39682,0.69333 2.2564,1.03999 3.36669,1.29211 v 0 c 1.18192,0.28364 2.54293,0.22061 3.68903,-0.18909 1.32519,-0.44121 2.4713,-0.47272 5.65891,-0.0315 1.07447,0.15757 1.93405,0.25212 2.68618,0.28363 1.07448,2.04847 2.9369,3.65574 5.44401,3.75028 0.6805,0.31515 1.46845,0.44121 2.32803,0.22061 1.361,-0.34667 2.32803,-1.48121 3.22342,-2.42666 1.07448,-1.10302 2.04151,-2.26907 2.97272,-3.49816 1.93405,-2.55271 3.43832,-5.29452 4.65606,-8.16238 0.0358,-0.0315 0.0358,-0.0945 0.0358,-0.12606 0.14327,-0.15758 0.25071,-0.34667 0.28653,-0.59879 0,-0.063 0.0358,-0.12606 0.0716,-0.18909 0.28653,-0.12606 0.53724,-0.31515 0.75213,-0.6303 2.29222,-3.62422 4.29791,-7.3745 5.90962,-11.28236 0.50142,-1.16606 0.96703,-2.36363 1.361,-3.52968 0.0716,-0.063 0.17908,-0.15758 0.25071,-0.25212 3.93974,-4.85331 5.69472,-10.65207 7.30643,-16.35628 0.28653,-0.81939 0.57305,-1.63878 0.82377,-2.45817 1.39681,-0.37818 2.93689,-0.37818 4.44116,-0.34667 1.18192,0.0315 2.0415,0.063 2.75782,0.94545 0.57305,0.69333 1.00284,1.44969 1.64753,2.11151 0.0716,0.0945 0.17908,0.15757 0.25071,0.2206 2.00568,5.51513 4.26208,11.09328 8.52417,15.63144 0.0716,0.0945 0.17908,0.15757 0.25071,0.2206 0.53724,1.16606 1.07447,2.3006 1.64753,3.43514 1.93405,3.7818 4.22626,7.40602 6.80501,10.87267 0.21489,0.31515 0.50142,0.50424 0.78794,0.59878 0.0358,0.063 0.0358,0.12606 0.0716,0.18909 0.0716,0.22061 0.21489,0.4097 0.35815,0.56727 0,0.0315 0.0358,0.0946 0.0358,0.12606 1.43263,2.77332 3.15179,5.42058 5.30074,7.84724 1.00285,1.16605 2.11314,2.26908 3.25924,3.30907 0.96703,0.88242 2.00569,1.95393 3.40251,2.20605 0.89539,0.15757 1.64753,0 2.32803,-0.37818 2.47129,-0.25212 4.22627,-1.95393 5.12166,-4.06543 0.75214,-0.0945 1.61172,-0.25212 2.68619,-0.44121 3.11598,-0.6303 4.26208,-0.69333 5.62309,-0.31515 1.21774,0.31515 2.57874,0.31515 3.68903,-0.0315 v 0 c 1.07447,-0.34666 1.89824,-0.72484 3.25924,-1.51272 3.47414,-2.04847 4.36953,-2.36362 6.19614,-2.26908 1.71916,0.0945 1.68334,0.12606 4.44116,-2.1115 0.93121,-0.75636 1.5759,-1.00848 3.18761,-1.2606 1.5759,-0.25212 2.07732,-0.53576 3.90393,-2.42666 1.57589,-1.60726 2.22058,-2.07999 3.90392,-2.7418 3.04435,-1.22908 6.12451,-5.35755 6.37522,-8.63511 l 0.0716,-0.94545 0.60887,-0.31515 c 2.97272,-1.54423 4.5128,-5.98784 3.50996,-9.32843 0.21489,-0.4097 0.39397,-0.81939 0.57305,-1.22909 0.0358,-0.0315 0.0358,-0.063 0.0716,-0.0945 0.42979,-0.25212 0.75213,-0.66182 0.75213,-1.2606 v -2.48969 c 0.25071,-0.25212 0.42979,-0.59878 0.46561,-1.00848 0.0358,-1.32363 -0.17908,-2.61574 -0.75213,-3.87634 -0.0716,-0.18909 -0.17908,-0.31515 -0.32235,-0.47273 -0.0358,-0.28363 -0.0716,-0.56727 -0.10744,-0.88242 -0.14327,-0.69333 -0.32235,-1.38665 -0.42979,-2.07998 0,-0.0315 0,-0.063 0,-0.0945 -0.35816,-1.16605 -0.60887,-2.67877 -0.8954,-5.19997 -0.32234,-2.74181 -0.64468,-4.60119 -1.07447,-5.92482 0.25071,0 0.50142,-0.063 0.75213,-0.18909 3.00853,-1.35515 5.69472,-3.21453 7.87948,-5.42058 0.8954,-0.56727 1.71916,-1.22908 2.43548,-2.04847 1.50426,-1.73333 2.36384,-3.81332 2.47129,-5.95634 1.46845,-4.91634 0.50142,-10.36843 -2.82945,-14.52841 0,-0.0315 -0.0358,-0.0315 -0.0358,-0.063 1.07448,-1.922411 2.18477,-3.970891 2.54293,-6.082391 0,-0.0315 0.0358,-0.0315 0.0358,-0.063 0.28652,-0.37818 0.50142,-0.81939 0.6805,-1.2606 2.0415,-3.87634 3.90392,-7.87875 4.94258,-12.00721 0.0358,-0.0945 0.0716,-0.18909 0.0716,-0.31515 0.2149,-0.88242 0.35816,-1.76484 0.50142,-2.64726 0.17908,-0.6303 0.32235,-1.2606 0.35816,-1.92241 0,-0.28364 -0.0358,-0.50424 -0.14326,-0.72485 0,-0.0945 0,-0.18909 0,-0.25212 -0.0358,-0.88242 0.0358,-1.70181 -0.0358,-2.55271 z m -18.40934,48.848231 c 0.0716,-0.15757 0.14327,-0.31515 0.2149,-0.47272 0.0358,0.25212 0.0716,0.50424 0.10745,0.72484 -0.10745,-0.0945 -0.2149,-0.15757 -0.32235,-0.25212 z"
   id="path4"
   style="stroke-width:0.335967" />
<path
   d="m 287.91543,31.139939 -0.60887,-0.6303 -3.43832,0.0945 c -30.37183,0.72485 -58.73797,12.98418 -89.36051,38.6689 -11.78341,9.8957 -28.33033,27.48107 -33.52362,35.706481 -1.39682,2.20605 -2.18477,3.18302 -3.1518,3.81332 -1.71916,1.13453 -1.39681,-0.4097 0.46561,-2.07999 2.22058,-2.01696 2.07732,-3.62423 -0.39397,-5.19998 l -1.14611,-0.72484 0.0716,-0.66182 c 0.46561,-3.655741 6.76919,-16.230221 12.2132,-24.329571 7.87948,-11.72358 13.03696,-17.11264 18.087,-18.94051 3.93974,-1.41817 5.12166,-2.39514 5.12166,-4.19149 0,-1.29212 -0.32234,-1.38666 -2.00568,-0.59879 -12.89371,6.20846 -24.17569,21.11505 -35.81584,47.33552 -0.14326,0.31515 -0.2149,0.34666 -1.54008,0.40969 -0.75213,0.0315 -1.46845,0.0946 -1.54008,0.12606 -0.0716,0.0315 -0.28653,-0.25212 -0.42979,-0.59878 -8.48836,-18.65688 -19.34055,-32.93317 -31.44631,-41.47373 -4.15463,-2.89938 -9.38375,-4.85331 -9.38375,-3.46665 0,1.85939 1.82661,3.27756 5.26493,4.15998 2.0415,0.50424 2.54293,0.72485 4.11882,1.63878 9.34794,5.45209 22.42072,22.78534 28.65267,37.91253 1.28937,3.183021 1.28937,2.867871 0.14327,3.718771 -2.54293,1.82787 -2.54293,3.08847 -0.0358,5.13695 1.5759,1.2606 1.89824,1.79635 1.64753,2.55271 l -0.14327,0.37818 -1.46844,-1.70181 C 134.26548,91.837769 117.14551,76.805119 98.915252,64.766389 70.549112,46.046489 48.092582,38.451379 20.156232,38.010169 l -5.12167,-0.063 -1.1461,1.00848 c -6.9482804,6.14542 0.93121,27.79622 14.89938,41.001 2.2564,2.14302 3.43833,3.43513 4.01138,4.47513 l 0.50142,0.8509 0.0716,2.48969 c 0.10745,3.05695 0.10745,3.08847 2.75782,7.62662 2.79364,4.790281 3.00853,5.420581 4.01137,10.589041 1.1103,5.86179 1.93406,7.5636 4.22627,8.72965 l 0.64469,0.31515 -0.0716,1.16606 c -0.42979,6.11391 3.36669,13.01569 8.91814,16.26173 l 1.07448,0.6303 -0.82377,0.75636 c -2.00569,1.85939 -2.57874,3.97089 -2.82945,10.55752 -0.17908,5.01089 -0.50142,6.61815 -1.5759,8.66663 -0.50142,0.91393 -0.50142,1.00848 -0.28652,1.22908 0.6805,0.66182 1.00284,1.76484 1.32518,4.4121 0.32235,2.67877 0.75214,3.75028 1.79079,4.6327 l 0.42979,0.37818 -0.25071,0.53576 c -1.93405,4.0024 0.35816,10.17934 4.44117,11.94418 l 0.75213,0.31515 0.17908,1.07151 c 0.60887,3.71877 4.54861,8.22541 8.23764,9.39147 2.00569,0.6303 2.82945,1.13454 4.79932,2.86786 2.29222,2.01696 2.90109,2.33211 4.76351,2.48968 1.89824,0.15758 2.68619,0.4097 3.83229,1.22909 3.40251,2.36362 3.36669,2.33211 5.37238,2.1115 2.11313,-0.25212 3.18761,0.063 7.41388,2.14302 1.61171,0.78788 2.61455,1.16606 3.93974,1.48121 v 0 c 1.361,0.31515 2.9369,0.25212 4.333718,-0.22061 1.54008,-0.53575 2.90108,-0.53575 6.59011,-0.0315 5.08585,0.66181 6.48267,0.47272 9.24049,-1.35515 1.96987,-1.29211 2.722,-1.60726 4.83513,-1.92241 3.79648,-0.56727 5.65891,-2.33211 10.74475,-10.17934 6.48267,-9.99026 10.88802,-19.00354 16.26039,-33.18529 l 2.29222,-6.05088 0.10745,2.86787 c 0.50142,14.11871 1.50426,19.25566 4.47697,22.40716 l 0.46561,0.47272 0.50142,-0.53575 c 1.18193,-1.29212 2.29222,-3.87635 2.68619,-6.303 0.0716,-0.56727 0.17908,-1.16606 0.25071,-1.35515 0.0358,-0.18909 0.14326,-3.87634 0.2149,-8.25692 0.0716,-4.34907 0.17908,-8.22542 0.21489,-8.54057 l 0.10745,-0.6303 0.89539,2.33211 c 2.07732,5.38907 4.11883,9.76965 7.59296,16.13568 10.92383,20.23262 17.58558,28.23743 23.88916,28.74167 2.07732,0.15757 2.86527,0.40969 4.69188,1.44969 3.15179,1.82787 3.79648,1.8909 9.88517,0.88242 3.25924,-0.53576 5.1933,-0.59879 8.5958,-0.37818 2.11314,0.12606 2.86527,-0.063 5.83798,-1.60727 4.58443,-2.36362 5.22911,-2.61574 7.59296,-2.77332 2.00569,-0.15757 2.43548,-0.31515 4.44116,-1.73332 1.71916,-1.19757 2.54293,-1.57575 4.08301,-1.82787 2.39966,-0.37818 2.9369,-0.69333 4.62024,-2.61574 2.29221,-2.61575 2.68619,-2.89938 4.19045,-3.02544 1.50427,-0.12606 2.4713,-0.78788 4.72769,-3.18302 2.14895,-2.33211 2.54293,-3.05695 2.75782,-5.42058 0.2149,-2.26907 0.35816,-2.64725 1.00285,-2.93089 3.97556,-1.79635 5.94543,-8.35147 3.79648,-12.606 l -0.28653,-0.56727 0.42979,-0.28363 c 1.00284,-0.66181 1.21774,-1.22908 1.14611,-3.08847 -0.14327,-3.65574 -0.10745,-3.87634 0.4656,-4.97937 0.8954,-1.73332 0.82377,-2.36362 -0.32234,-4.66422 -0.32234,-0.66181 -0.82376,-1.63878 -1.11029,-2.17453 -0.85958,-1.73332 -0.8954,-1.85938 -1.361,-8.03632 -0.28653,-3.71877 -1.11029,-5.60967 -2.9369,-6.77573 l -0.53724,-0.34666 0.96703,-0.56727 c 4.9784,-2.89938 7.59296,-8.03632 7.66459,-15.19023 l 0.0358,-2.83634 0.71632,-0.50424 c 2.43548,-1.6703 2.90108,-3.02544 3.4025,-9.612081 0.32235,-4.25452 0.96703,-6.39754 3.18761,-10.43146 2.18477,-4.03392 2.68619,-5.86179 2.36385,-8.54056 l -0.17908,-1.35515 2.86527,-3.87634 c 7.66459,-10.33692 11.10291,-16.07264 13.50257,-22.43867 2.90108,-8.44602 2.79363,-17.2387 -0.46561,-20.51626 z m -169.6238,53.54397 c 2.722,2.36362 6.44685,5.48361 8.27346,6.96481 16.47528,13.236301 20.48666,17.616881 21.09553,22.942911 v 0 l 0.10744,0.91394 h -1.43263 c -1.82661,0 -3.33087,-0.25212 -5.47982,-0.88242 -2.82945,-0.81939 -4.79933,-1.73333 -11.21036,-5.0424 -2.47129,-1.2606 -8.95396,-4.25452 -13.07278,-5.98785 -2.11313,-0.88242 -3.6174,-1.41817 -6.62593,-2.26908 -4.33372,-1.2606 -5.6589,-1.796351 -6.76919,-2.773321 -0.75214,-0.66181 -0.8954,-0.88242 -2.4713,-3.87634 -1.146098,-2.14302 -3.115968,-4.09695 -6.231948,-6.11391 -1.39682,-0.91393 -2.61456,-1.57575 -8.09438,-4.4121 l -2.11313,-1.10302 -0.17908,-0.75636 c -0.96703,-3.84483 -3.72485,-8.4145 -7.41388,-12.16479 -0.50142,-0.50424 -0.8954,-0.94545 -0.85958,-0.97696 0.42979,-0.34667 7.62877,-0.75636 10.45822,-0.59879 11.49689,0.66182 17.979548,3.93938 32.019358,16.13568 z M 98.378022,154.6787 c -0.96702,0.15758 -2.722,0.31515 -3.93974,0.34667 l -2.18476,0.063 0.6805,-0.66182 c 2.11313,-2.07999 3.4025,-4.47513 6.12451,-11.31388 4.978398,-12.54297 8.273448,-14.81205 19.125648,-13.01569 6.91246,1.13454 8.34509,0.94545 17.76466,-2.64726 5.47982,-2.07999 6.98409,-2.33211 6.73337,-1.13454 -1.54008,7.59511 -7.7004,12.8266 -26.03811,22.06049 -6.98409,3.49817 -12.49973,5.42058 -18.266078,6.303 z m -22.81468,5.0424 c -10.67312,1.67029 -14.54123,-5.79876 -6.62593,-12.76357 3.65321,-3.21453 5.83798,-3.87635 17.33486,-5.23149 5.08585,-0.59879 6.98409,-0.91393 8.63162,-1.38666 0.93121,-0.28363 1.39682,-0.34666 1.96987,-0.28363 l 0.75213,0.063 -0.0716,1.67029 c -0.35816,7.72117 -10.70893,16.1987 -21.99092,17.93203 z M 38.529762,64.671889 c 0.6805,-1.32363 8.55999,-2.7418 11.67597,-2.07999 5.12166,1.07151 4.01137,6.77572 -1.5759,8.03632 -6.16033,1.35515 -12.06994,-2.07999 -10.10007,-5.95633 z m 0.60887,7.75269 v 0 c -0.14326,0.15757 -0.4656,0.2206 -1.32518,0.2206 h -1.14611 l -0.42979,-0.91393 c -0.96703,-2.07999 -0.75213,-2.55272 1.14611,-2.64726 l 1.1461,-0.0315 0.42979,0.75636 c 0.42979,0.81939 0.57306,2.23757 0.17908,2.61575 z m 12.82207,22.87988 c 4.33372,0 6.48267,4.12846 2.722,5.294521 -2.82945,0.88242 -6.41103,-0.59879 -6.41103,-2.647261 0,-1.57575 1.54008,-2.64726 3.68903,-2.64726 z m 29.97786,-11.21934 c -0.53724,0.12606 -2.61456,0.75636 -4.62025,1.41818 -3.86811,1.2606 -5.33656,1.63878 -7.34224,1.85938 v 0 c -10.06425,1.07151 -16.65437,-5.76724 -12.64299,-13.14175 2.90108,-5.32603 16.08131,-5.92482 21.05971,-0.97696 1.28937,1.29211 1.96987,2.71029 3.25924,6.71269 0.42979,1.35514 0.8954,2.71029 1.00284,3.02544 0.35816,0.81939 0.32235,0.8509 -0.71631,1.10302 z m 10.49404,5.13695 c 11.246168,7.09087 9.706088,10.39994 -6.12451,12.984171 -1.75498,0.28364 -5.05003,0.88242 -7.34225,1.35515 -2.29221,0.47272 -5.08585,0.97696 -6.23195,1.13454 -7.84367,1.16605 -11.0671,-0.25212 -12.64299,-5.578161 -1.82661,-6.14542 0.96702,-9.54904 8.88232,-10.80964 13.14442,-2.07999 19.05403,-1.85938 23.45938,0.91394 z m -38.53784,17.427791 c 0.93121,-1.63878 3.04434,-2.67878 5.51563,-2.67878 h 0.78795 l 0.0716,1.57575 0.0716,1.57575 -0.39398,0.34667 c -0.21489,0.18909 -0.71631,0.47272 -1.11029,0.59878 v 0 c -1.75497,0.56727 -3.72485,0.4097 -4.83514,-0.44121 l -0.4656,-0.34666 z m 8.70324,29.435 0.68051,0.25212 -0.10745,0.66181 c -0.32234,2.36363 -1.39682,3.52968 -4.47698,4.82179 -0.96703,0.4097 -1.93406,0.78788 -2.18477,0.85091 l -0.42979,0.0945 0.10745,-1.29211 c 0.28653,-4.0024 3.33087,-6.58663 6.41103,-5.38906 z m -2.75782,9.70661 c 1.03866,-1.22908 1.82661,-1.10302 2.36385,0.31515 0.71632,1.82787 0.50142,3.02544 -0.53724,3.49817 -2.07732,0.94545 -3.47413,-1.92242 -1.82661,-3.81332 z m 4.97841,14.11872 c -0.75214,0.53575 -1.7908,0.15757 -2.61456,-0.91394 -0.57305,-0.75636 -0.53724,-0.91393 0.35816,-1.13454 1.361,-0.37818 3.22342,1.29212 2.2564,2.04848 z m 39.218338,-31.07378 c 1.71916,0.25212 2.75782,0.47272 2.29221,0.47272 -0.78795,0.0315 -2.18477,1.76484 -3.43832,4.28604 -1.46845,2.9309 -2.50711,4.15998 -4.297898,4.94786 -2.57874,1.13454 -8.41672,2.07999 -15.47244,2.42665 v 0 c -8.27346,0.44121 -13.14441,-0.18909 -13.35931,-1.67029 -1.21774,-8.79269 13.75328,-13.36236 34.275758,-10.46298 z m -0.64469,-1.82787 c 0,-0.0945 2.97272,-0.18909 11.42525,-0.37818 11.78341,-0.25212 17.6214,-0.75636 22.27745,-1.95393 1.32519,-0.34666 1.50427,-0.25212 1.18193,0.47272 -0.53724,1.22909 -6.73338,2.96241 -12.8937,3.62423 v 0 c -1.82661,0.18909 -8.55999,0.34666 -10.45823,0.2206 -4.22627,-0.25212 -11.5327,-1.4812 -11.5327,-1.98544 z m 24.92782,-5.98785 c -4.2979,-0.2206 -6.805,-0.47272 -14.54123,-1.41817 -14.397958,-1.76484 -19.519628,-1.38666 -30.909058,2.36362 -3.18761,1.04 -4.87096,1.51272 -6.26777,1.76484 v 0 c -11.42526,2.01696 -17.87211,-13.14175 -7.37807,-17.30173 2.32803,-0.91393 4.54862,-1.22908 11.13873,-1.60726 6.30359,-0.34667 7.87948,-0.56727 13.28767,-1.98545 9.491198,-2.45817 12.678808,-2.17453 23.638458,2.07999 5.33656,2.07999 7.52132,3.1515 12.57136,6.20845 6.91245,4.15998 11.21035,5.86179 15.93804,6.27149 l 1.07448,0.0945 -0.50142,0.37818 c -3.22343,2.42666 -9.81354,3.5612 -18.05119,3.1515 z M 78.679312,58.305859 c 4.87096,0.66182 9.45539,2.45817 13.18023,5.13694 1.361,0.97697 3.25924,2.55272 3.25924,2.71029 0,0.31515 -2.93689,-0.063 -5.15748,-0.66181 -4.01137,-1.10303 -7.62877,-3.02544 -11.38943,-6.01936 -1.71916,-1.35515 -1.71916,-1.41818 0.10744,-1.16606 z m -9.45538,-7.21693 c 3.58159,0.34666 7.41388,2.58423 7.41388,4.34907 0,0.25212 -2.79363,-0.12606 -4.11882,-0.56727 -1.64753,-0.56727 -3.47414,-2.14302 -4.01137,-3.49817 l -0.14327,-0.37818 z m 4.54862,14.40235 c 0.21489,0.6303 0.14326,0.69333 -1.18193,0.97696 -3.18761,0.72485 -6.84082,0.22061 -10.6373,-1.4812 -1.14611,-0.50424 -1.14611,-0.53576 -0.42979,-1.13454 3.15179,-2.71029 11.10291,-1.63878 12.24902,1.63878 z m -12.28484,-17.93203 c 2.18477,0.53575 3.18761,1.10302 3.6174,2.1115 0.32235,0.72485 0.35816,0.72485 -1.18192,0.37818 -2.22058,-0.47272 -3.22342,-1.07151 -3.54577,-2.1115 -0.25071,-0.69333 -0.21489,-0.69333 1.11029,-0.37818 z m 4.08301,8.47753 c 0.0716,1.22909 0.0358,1.32363 -0.64469,1.29212 -5.73053,-0.44121 -8.13019,-1.8909 -8.13019,-4.85331 -0.0358,-5.01089 8.48835,-1.51272 8.77488,3.56119 z m -3.93974,1.8909 c 1.28937,0.50424 2.65037,1.57575 2.65037,2.14302 0,0.25212 -1.79079,0.94545 -3.00853,1.13454 -3.79648,0.6303 -7.77204,-1.16605 -7.77204,-3.52968 0.0358,-0.81939 5.83798,-0.6303 8.1302,0.25212 z m -11.7476,-9.6751 c 0.75214,-1.07151 4.5128,-0.85091 4.62025,0.28363 0.0716,0.56727 -0.46561,1.16606 -1.32519,1.54424 -2.11313,0.8509 -4.33372,-0.34667 -3.29506,-1.82787 z m -2.0415,-0.12606 c 0.35816,1.57575 -2.86527,3.71877 -6.62593,4.44361 -5.44401,1.04 -10.6373,-0.59878 -10.6373,-3.3721 -0.0358,-3.08847 16.58273,-4.09695 17.26323,-1.07151 z m -11.21036,-7.37451 c 0.57306,0.50424 1.00285,1.48121 0.75214,1.70181 -0.60887,0.6303 -8.45254,-0.37818 -8.45254,-1.07151 0,-2.14302 5.44401,-2.58423 7.7004,-0.6303 z m -10.13588,2.48969 c 2.97272,0.25212 3.68903,3.02544 1.11029,4.25452 -0.93121,0.44121 -2.57874,0.53575 -3.54577,0.2206 -3.33087,-1.03999 -1.28937,-4.75876 2.43548,-4.47512 z m 3.58158,10.99873 0.28653,0.53575 -0.39397,0.37818 c -0.60887,0.56727 -1.361,0.94545 -2.54293,1.29212 -3.33087,0.97696 -6.08869,0.0945 -6.08869,-1.98545 0.0358,-3.05695 7.05572,-3.24604 8.73906,-0.2206 z m -15.83059,-12.03873 c 0,-0.66181 1.28937,-0.81939 2.90108,-0.31515 1.28937,0.4097 1.361,0.56727 0.25071,0.81939 -1.75498,0.37818 -3.15179,0.15758 -3.15179,-0.50424 z m 4.47697,8.35147 c -0.75213,0.18909 -4.19045,-0.50424 -4.19045,-0.81939 0,-0.53575 1.61171,-1.4812 2.72201,-1.60726 l 0.71631,-0.0945 0.53724,0.75636 c 0.64468,0.94545 0.75213,1.63878 0.21489,1.76484 z m 5.15749,11.47146 c -2.61456,0.6303 -4.94259,-1.10302 -3.90393,-2.89938 1.00284,-1.70181 4.94258,-0.50424 5.26493,1.57575 0.10744,0.59879 -0.39398,1.07151 -1.361,1.32363 z m 8.34509,13.89811 c -0.42979,0.94545 -2.50711,0.50424 -3.1518,-0.66181 -0.6805,-1.2606 -0.25071,-2.48969 0.85958,-2.48969 1.79079,0 3.00853,1.6703 2.29222,3.1515 z m -1.50427,-7.94178 c -1.96987,0.59879 -4.5128,-0.0315 -5.1933,-1.29211 -1.21773,-2.3006 2.43548,-4.47513 5.37238,-3.21453 2.68619,1.16605 2.61456,3.65574 -0.17908,4.50664 z m 1.5759,-9.83267 c 0.39397,-1.98545 2.22058,-3.24605 5.55145,-3.87635 2.90108,-0.53575 13.35931,-0.12606 13.35931,0.53576 0,1.92241 -3.58159,3.97089 -8.05856,4.6327 -2.54293,0.37818 -6.66175,0.34667 -9.56283,-0.063 -1.54008,-0.25212 -1.50427,-0.2206 -1.28937,-1.22908 z m 3.29505,21.20958 c -0.32234,-1.13454 0.96703,-2.36362 2.43548,-2.36362 1.86242,0 2.18477,1.82787 0.46561,2.61574 -1.14611,0.50424 -2.72201,0.37818 -2.90109,-0.25212 z m 4.40535,10.62056 c -1.03866,0.47272 -1.61171,0.15757 -1.71916,-0.88242 -0.10745,-1.13454 0.93121,-1.95393 2.07732,-1.60727 0.85958,0.25212 0.57305,2.07999 -0.35816,2.48969 z m 6.5543,-15.3478 c 5.15748,0 6.59011,6.68117 1.71916,8.19389 -2.39966,0.75636 -5.22911,-0.063 -6.19614,-1.79635 -1.61171,-2.96241 0.78795,-6.39754 4.47698,-6.39754 z m -1.61171,26.157441 c -1.64753,-0.44121 -2.54293,-1.544241 -2.82945,-3.498171 -0.10745,-0.72484 -0.10745,-0.72484 0.93121,-0.2206 1.79079,0.88242 2.57874,1.79635 2.722,3.119981 0.10745,0.78788 0.0358,0.85091 -0.82376,0.59879 z m 0.32234,-12.574481 c 0.17908,-1.13454 6.16032,-1.22909 6.3394,-0.12606 0.10745,0.75636 -0.60887,1.76484 -1.61171,2.23756 -2.22058,1.00848 -5.01422,-0.25212 -4.72769,-2.1115 z m 3.97556,20.106561 c 0,0.78788 -0.0716,0.85091 -0.85958,0.69333 -0.96703,-0.2206 -1.64753,-1.00848 -1.89824,-2.23756 l -0.10745,-0.50424 0.6805,0.0945 c 1.43263,0.15758 2.18477,0.81939 2.18477,1.95393 z m 1.96987,9.39147 c 0,-2.74181 4.72769,-3.08847 6.5543,-0.47273 0.64468,0.91394 -0.10745,2.42666 -1.50427,3.05696 -2.36384,1.03999 -5.05003,-0.34667 -5.05003,-2.58423 z m 2.65037,29.81318 c 0.25071,-1.29212 0.25071,-1.2606 0.82376,-0.94545 1.03866,0.53575 1.50427,2.36362 0.85958,3.34059 -0.96702,1.38666 -2.11313,-0.25212 -1.68334,-2.39514 z m -0.78795,6.49209 c 0,-1.29212 1.89824,-1.76484 2.54293,-0.6303 0.28652,0.50424 0.28652,0.81939 -0.0716,1.00848 -0.78794,0.44121 -2.47129,0.18909 -2.47129,-0.37818 z m 2.68619,7.50056 c -0.57305,-1.79635 -0.14326,-2.93089 0.8954,-2.48968 1.28937,0.53575 2.11313,1.79635 1.86242,2.77332 l -0.14326,0.47272 -1.18193,0.0315 -1.18192,0.0315 z m 3.50995,6.14543 c -0.10745,0.25212 -0.21489,0.66181 -0.21489,0.88242 v 0 0.44121 h -1.14611 -1.14611 v -0.78788 c 0,-0.78787 0.64469,-2.39514 0.96703,-2.39514 1.39682,-0.0315 2.07732,0.75636 1.54008,1.85939 z m 0.78795,-14.90659 c 0.39397,-0.31515 0.78795,-0.72485 0.8954,-0.88242 0.6805,-1.16606 1.57589,1.67029 1.00284,3.1515 -0.2149,0.56727 -0.32234,0.59878 -1.25355,0.12606 -1.61172,-0.75636 -1.7908,-1.44969 -0.64469,-2.39514 z m 3.22343,26.09441 c -0.25072,1.29211 -1.18193,1.19757 -1.93406,-0.22061 -0.64468,-1.2606 -0.35816,-4.91634 0.35816,-4.72725 1.43263,0.37818 2.07732,2.45817 1.5759,4.94786 z m 2.722,-11.25085 c -1.21774,0.66181 -2.65037,-0.78788 -2.11314,-2.14302 0.28653,-0.69333 0.68051,-0.75636 1.36101,-0.18909 0.53723,0.53575 1.07447,2.14302 0.75213,2.33211 z m 0.75213,7.46905 c -0.28653,-0.37818 -0.6805,-2.33211 -0.50142,-2.48969 0.71632,-0.63029 2.9369,1.76484 2.57874,2.77332 -0.25071,0.66182 -1.54008,0.47273 -2.07732,-0.28363 z m 5.8738,9.64359 v 0 c -2.11314,0.88242 -6.01706,-0.69333 -5.33656,-2.17454 0.4656,-1.07151 1.54008,-1.4812 2.79363,-1.10302 1.7908,0.56727 3.58159,2.83635 2.54293,3.27756 z m -0.78795,-19.85445 c 1.86242,-4.22301 10.24333,-7.40602 22.77887,-8.60359 1.89824,-0.18909 8.201828,-0.44121 8.345088,-0.34666 0.0716,0.063 0.32234,-0.063 -3.259238,1.76483 -7.16317,3.65574 -9.52701,5.26301 -13.21604,8.95026 -3.47414,3.49817 -5.22911,4.88483 -7.16317,5.64119 -4.5128,1.82786 -9.41956,-2.99393 -7.48551,-7.40603 z m 2.722,15.03265 c -0.50142,-0.69333 -0.75213,-1.67029 -0.42979,-1.67029 0.93122,0 3.08017,1.51272 2.61456,1.85938 -0.0358,0.0315 -0.35816,0.15758 -0.75213,0.31515 -0.93121,0.31515 -0.82377,0.34667 -1.43264,-0.50424 z m 6.62593,9.86419 v 0 c -0.93121,0.47273 -2.79363,0.063 -4.2979,-0.91393 -1.96987,-1.29211 0.93121,-2.89938 3.1518,-1.76484 0.96702,0.50424 1.75497,2.36362 1.1461,2.67877 z m 3.33088,-4.72724 c -2.4713,0.34666 -4.54861,-0.53576 -4.54861,-1.98545 v -0.40969 l 1.64752,0.0315 c 2.32803,0.063 3.11598,0.47273 3.36669,1.79636 0.0716,0.47272 0.0716,0.50424 -0.4656,0.56727 z m 2.54292,6.7442 c -0.71632,-0.97696 -0.6805,-1.03999 0.53724,-1.03999 2.29221,0 3.90392,0.97696 3.90392,2.36362 -0.0358,1.07151 -3.47413,0.0315 -4.44116,-1.32363 z m 6.66175,-3.11998 c -1.14611,0.56727 -3.18761,0.31515 -4.19046,-0.56727 -1.61171,-1.38666 1.82661,-3.30907 4.22627,-2.36362 1.43264,0.59878 1.43264,2.20605 -0.0358,2.93089 z m 2.39966,-7.12239 c -5.08585,0.56727 -10.42241,-1.22908 -11.89086,-3.97089 -2.54292,-4.66422 3.18761,-11.59751 15.18591,-18.31021 5.229118,-2.93089 14.254708,-7.05935 15.830598,-7.24844 l 0.57306,-0.063 -0.10745,1.2606 c -0.25071,3.11998 -1.361,6.14542 -4.15464,11.25085 -0.64468,1.19757 -2.07732,3.87634 -3.18761,5.92482 -4.65606,8.82419 -6.51848,10.526 -12.249008,11.1563 z m 6.124508,12.54297 c 0,0.91393 -0.0358,1.00848 -0.32235,1.07151 -1.75497,0.40969 -4.620238,-0.81939 -4.262078,-1.82787 0.21489,-0.53576 1.21774,-0.69333 2.972708,-0.44121 l 1.61172,0.2206 z m 2.25639,-3.37211 c -2.0415,0.0315 -3.79648,-0.47272 -5.623078,-1.60726 -0.93122,-0.59879 -0.96703,-0.59879 -0.53724,-1.00848 1.969868,-1.85938 7.055718,-0.34666 7.306428,2.17453 v 0 l 0.0358,0.4097 z m 3.47414,-17.80597 c 5.15748,-8.60359 7.80785,-14.65447 9.45538,-21.49322 0.0716,-0.28363 2.86527,-2.1115 7.98693,-5.29452 10.45823,-6.49208 15.8306,-10.74661 19.37637,-15.44234 0.85958,-1.10303 0.89539,-1.16606 1.361,-0.94545 0.75213,0.34666 -0.10745,5.76724 -1.54008,9.70662 -1.61171,4.38058 -3.72485,8.09935 -8.02275,14.15023 -4.62024,6.49208 -5.55145,7.84723 -8.41672,12.22781 -3.43832,5.23149 -4.51279,6.83875 -6.62593,9.80116 -0.82376,1.13454 -1.93405,2.67878 -2.47129,3.43514 -2.65037,3.68725 -4.69188,5.48361 -7.27062,6.33451 v 0 c -1.57589,0.53576 -4.65606,0.47273 -5.15748,-0.0945 -2.39966,-2.61575 -1.89824,-6.99633 1.32519,-12.3854 z m 1.14611,23.85685 v 0 c -0.42979,0.18909 -0.46561,0.18909 -1.46845,-0.28363 -1.71916,-0.78788 -0.8954,-1.95393 1.50426,-2.11151 l 1.07448,-0.063 0.10744,0.37818 c 0.14327,0.81939 -0.32234,1.6703 -1.21773,2.07999 z m 4.62024,-4.60119 c -1.11029,0.47273 -3.58158,0.15758 -4.58443,-0.53575 -1.361,-0.97697 1.50427,-2.96241 3.97556,-2.74181 0.93121,0.063 1.46845,2.9309 0.60887,3.27756 z m 5.58727,1.76484 c -0.28653,0.50424 -0.96703,0.75636 -2.722,0.97697 -0.82377,0.12606 -1.68335,0.28363 -1.93406,0.37818 -0.53724,0.2206 -0.50142,0.2206 -0.6805,-0.063 -0.6805,-1.10303 0.60887,-1.76484 3.72485,-1.8909 1.96987,-0.063 2.00568,-0.063 1.61171,0.59878 z m 18.26608,-35.80103 c -0.93122,15.66295 -8.02275,30.85318 -14.93521,31.98772 -1.18192,0.18909 -2.79363,0.063 -3.22342,-0.25212 -2.14895,-1.54424 -0.14327,-8.57208 4.2979,-15.15871 0.85958,-1.2606 1.96987,-2.93089 2.47129,-3.71877 0.50142,-0.78787 2.57874,-3.87634 4.65606,-6.90178 2.0415,-3.02544 4.2979,-6.39755 5.01422,-7.53208 1.8266,-2.89938 1.96987,-2.77332 1.71916,1.57574 z m 5.73053,0.75636 c -2.57874,4.63271 -4.58443,8.6036 -4.58443,9.07632 0,0.69333 -0.28652,-0.12606 -0.4656,-1.29211 -1.03866,-7.53209 0.4656,-13.29933 6.26777,-24.01443 2.32803,-4.28603 3.76066,-7.31147 4.44116,-9.32843 0.50142,-1.48121 1.11029,-0.88242 1.39682,1.32363 0.85958,7.50056 -0.64469,12.73205 -7.05572,24.23502 z M 274.2696,36.245369 c 3.54577,-1.29212 7.2348,2.36362 4.04719,4.0024 -1.68335,0.88242 -5.01422,0.31515 -5.76635,-1.00848 -0.57306,-0.97696 0.28652,-2.45817 1.71916,-2.99392 z m 6.62593,9.76965 c 0.75213,0.97696 -0.39398,2.7418 -2.11314,3.27755 -2.43547,0.72485 -6.5543,-0.34666 -6.5543,-1.73332 0,-2.58423 6.91246,-3.81331 8.66744,-1.54423 z m -16.69018,-10.4945 c 0.0358,-2.36362 5.05003,-3.81331 7.52132,-2.17453 1.18193,0.78787 -0.85958,2.1115 -3.83229,2.45817 v 0 c -0.57305,0.063 -1.61171,0.12606 -2.36385,0.12606 h -1.361 z m -10.24333,7.53209 c 1.18192,-4.15998 16.00968,-4.79028 17.26323,-0.72485 0.57305,1.8909 -1.28937,3.40362 -4.72769,3.81332 -5.05003,0.63029 -13.03696,-1.32363 -12.53554,-3.08847 z m -3.76066,-1.16606 c 2.25639,0 3.29505,1.98545 1.361,2.58423 -0.25071,0.0945 -1.03866,0.15758 -1.71916,0.15758 h -1.25356 l -0.4656,-0.75636 c -0.96703,-1.54424 -0.50142,-1.98545 2.07732,-1.98545 z m -1.64753,9.95874 0.85958,0.0945 -0.10745,0.4097 c -0.39397,1.54423 -2.2564,2.99392 -4.54861,3.46665 -1.75498,0.37818 -3.68903,0.31515 -5.12167,-0.15758 -1.39681,-0.47272 -1.43263,-0.53575 -0.93121,-1.16605 1.5759,-2.01696 5.8738,-3.1515 9.84936,-2.64726 z m -7.73622,103.148561 c -0.64469,0.18909 -4.72769,0.34667 -5.55146,0.22061 -10.92383,-1.73333 -18.83913,-6.27149 -22.52816,-12.92115 -2.57874,-4.60119 -2.39966,-6.08239 0.53724,-5.19997 2.2564,0.69333 3.25924,0.78787 9.41956,0.91393 10.24333,0.22061 12.92952,0.72485 16.36784,2.99392 7.62877,5.07392 8.52417,12.03873 1.75498,13.99266 z m -50.10636,-28.11137 v 0 c -6.59011,0.53575 -13.32349,0.063 -17.94373,-1.22909 -1.07448,-0.31515 -4.2979,-1.57574 -4.19046,-1.67029 0.0358,-0.0315 1.1103,0.063 2.43548,0.18909 2.14895,0.18909 3.90393,0.22061 18.05118,0.18909 8.63162,-0.0315 15.65152,0 15.65152,0.063 0.0358,0.47273 -9.20467,2.07999 -14.00399,2.45817 z m 20.66574,-2.01696 c 16.65436,-1.85938 27.29167,1.44969 28.11543,8.76117 0.17908,1.4812 -1.21774,2.39514 -4.58443,2.99392 v 0 c -1.07447,0.18909 -2.14895,0.28364 -4.15463,0.31515 -2.97272,0.063 -2.86527,0.063 -7.70041,-0.31515 -1.86242,-0.12606 -4.69187,-0.34666 -6.26777,-0.44121 -7.37806,-0.50424 -8.55998,-1.10302 -11.56852,-5.8933 -1.54008,-2.45817 -2.54292,-3.65574 -3.11597,-3.65574 -1.96987,0 4.54861,-1.22909 9.2763,-1.76484 z m -39.36161,1.4812 c 9.34794,3.05696 10.49404,3.18302 17.90792,1.95393 8.02275,-1.32363 10.52986,-0.97696 13.89655,1.98545 2.11313,1.85938 3.54577,4.06543 6.23195,9.39147 2.75782,5.45209 3.43832,6.55511 5.55146,8.88722 0.85958,0.94545 1.93405,2.48969 1.96987,2.80484 v 0 c 0,0.0945 -4.87096,0.0945 -5.73054,0 -8.91814,-0.91394 -17.8721,-4.15998 -32.3417,-11.72358 -9.9568,-5.19997 -15.6157,-11.12479 -14.07562,-14.7175 0.10745,-0.37818 2.97272,0.2206 6.59011,1.41817 z m 38.68111,26.28351 c 12.71462,-0.6303 26.61116,3.30907 28.65267,8.16238 1.03866,2.45817 -1.03866,6.39754 -3.86811,7.24845 -2.43548,0.72484 -5.40819,-0.72485 -12.06994,-5.79876 -4.04719,-3.08847 -9.63446,-6.5236 -14.07562,-8.57208 -1.86243,-0.91393 -1.86243,-0.88242 1.361,-1.03999 z m 29.47643,-36.49436 c -3.29506,3.59271 -6.48267,4.03392 -13.86073,1.92241 -6.01706,-1.70181 -12.24901,-2.67877 -17.29905,-2.67877 -3.50995,0 -5.58727,0.28363 -15.43662,2.04847 -6.5543,1.16606 -10.42241,1.76484 -13.86073,2.11151 -7.09154,0.75636 -13.68165,0.15757 -18.087,-1.60727 l -1.00284,-0.40969 0.35816,-0.25212 c 0.78795,-0.56727 2.97271,-1.38666 6.12451,-2.33211 5.33655,-1.60727 6.87664,-2.36363 14.39796,-7.18542 14.89939,-9.549041 18.66005,-10.557521 30.7658,-8.319961 5.47983,1.008481 6.33941,1.103031 12.64299,1.229091 7.09154,0.15757 9.06141,0.34666 11.92668,1.16605 6.73338,1.92242 8.3809,8.88723 3.33087,14.30781 z m -0.4656,-16.167191 c -2.32803,0.441211 -6.66175,0.189091 -13.93236,-0.75636 -1.93406,-0.25212 -4.94259,-0.6303 -6.69757,-0.85091 -12.60717,-1.54423 -15.54407,-3.84483 -11.28198,-8.79268 1.71916,-2.01696 5.69471,-5.07391 7.62877,-5.92482 4.11882,-1.76484 21.27461,-1.03999 26.43209,1.13454 6.16032,2.58423 4.54861,13.92963 -2.14895,15.19023 z m -5.80217,-34.60346 c 8.55998,-1.60727 13.53839,1.13454 13.96818,7.68966 0.32234,4.82179 -2.32803,8.25692 -7.30643,9.42298 -0.85958,0.18909 -4.62025,0.34666 -5.44401,0.2206 -0.2149,-0.0315 -1.03866,-0.15757 -1.89824,-0.31515 -0.82377,-0.12606 -3.22343,-0.66181 -5.30074,-1.19757 -2.07732,-0.53575 -4.29791,-1.03999 -4.90677,-1.16605 -0.75214,-0.15758 -1.1103,-0.28364 -1.07448,-0.37818 0.0716,-0.15758 0.42979,-1.73333 1.03866,-4.56967 1.32519,-6.17694 3.79648,-8.38299 10.92383,-9.70662 z m -4.22627,-4.53816 c 0.71632,-3.08847 7.87949,-4.53816 11.7476,-2.36362 l 0.71631,0.40969 -0.57305,0.50424 c -1.14611,1.04 -3.08016,1.92242 -5.22911,2.42666 v 0 c -2.97272,0.63029 -6.91246,0.0945 -6.66175,-0.97697 z m 22.63561,39.866461 c 0.46561,0.78788 -0.50142,1.92242 -1.71916,2.07999 -0.28653,0.0315 -0.64469,0.0945 -0.75213,0.0945 -2.00569,0.28363 -4.22627,-1.35515 -4.22627,-3.119991 0,-2.01696 5.40819,-1.2606 6.69756,0.945451 z m -7.27061,-55.844561 0.53723,0.15758 v 1.13454 c 0,2.80483 -2.00568,5.07391 -5.08585,5.70421 -0.78794,0.15757 -2.5071,0.28363 -3.18761,0.18909 l -0.50142,-0.063 0.10745,-0.6303 c 0.6805,-4.28604 4.72769,-7.53208 8.1302,-6.49209 z m -8.16602,-0.0945 c 0.8954,-1.54424 4.94259,-3.40362 4.94259,-2.23757 0,0.88242 -1.68334,2.04848 -3.65322,2.5212 -1.75497,0.44121 -1.71916,0.44121 -1.28937,-0.28363 z m -10.67311,6.1139 c 0.75213,-2.36362 3.25924,-3.93937 7.30643,-4.6327 0.60886,-0.0945 0.57305,0.2206 -0.25072,1.44969 -1.1461,1.70181 -3.08016,2.86786 -5.444,3.24604 v 0 c -1.5759,0.28364 -1.71916,0.28364 -1.61171,-0.063 z m -2.65038,3.40362 c 2.72201,-0.59878 2.72201,-0.6303 0.42979,1.32363 -3.76066,3.24605 -7.80785,5.51513 -12.35646,6.9333 -1.79079,0.56727 -3.29506,0.91393 -3.25924,0.75636 1.32518,-3.30907 8.3809,-7.50057 15.18591,-9.01329 z m -63.82382,59.846971 c 0.28653,-3.08847 1.96987,-6.46057 4.9784,-10.0848 2.00569,-2.36362 3.72485,-4.096951 9.34794,-9.265411 3.29505,-3.05695 5.05003,-4.79027 9.81354,-9.70661 15.86641,-16.41931 23.45937,-20.35869 39.3616,-20.3902 4.83514,0 5.15748,0.18909 3.25924,1.95393 -2.22058,2.07999 -4.58443,6.61815 -5.90961,11.28236 -0.42979,1.57575 -0.42979,1.54424 -1.89824,2.3006 -7.77204,3.93937 -13.75328,9.64359 -15.43663,14.68598 -0.28652,0.88242 -1.32518,1.41818 -11.5327,5.861791 -9.34793,4.06544 -10.67311,4.72725 -16.2962,8.28845 -5.94543,3.78179 -8.98978,5.16845 -12.64299,5.83027 v 0 c -0.78795,0.12606 -1.82661,0.28363 -2.29221,0.31515 l -0.85958,0.063 z m 12.60718,51.96822 c -0.42979,-0.75636 -2.32803,-3.59271 -4.15464,-6.33452 -7.98693,-11.75509 -10.8522,-19.69686 -9.67028,-26.88228 l 0.10745,-0.75636 1.39682,2.36362 c 0.75213,1.29212 2.47129,4.00241 3.76066,6.01937 6.91246,10.62055 9.09722,16.32476 9.41957,24.73926 v 0 c 0.0716,2.61575 0.14326,2.58423 -0.85958,0.85091 z m 19.69871,22.37564 c -4.83514,1.92241 -10.95965,-5.60967 -16.5111,-20.23262 -2.50711,-6.64967 -4.26209,-17.90052 -2.14895,-14.11872 0.53723,0.97697 3.97555,5.42058 6.80501,8.8242 6.1245,7.31148 8.09437,9.8957 10.67311,14.0872 3.54577,5.6727 4.01138,10.3054 1.18193,11.43994 z m 6.98409,4.44361 c -0.25072,-0.063 -1.1103,-0.15757 -1.96988,-0.2206 -1.75497,-0.15758 -2.61455,-0.4097 -3.04434,-0.88242 -0.57306,-0.6303 -0.42979,-0.66182 1.50426,-0.66182 2.43548,0 3.29506,0.28364 3.8323,1.19757 v 0 c 0.28652,0.50424 0.17908,0.69333 -0.32234,0.56727 z m -0.60887,-5.04239 c 0.32234,-2.07999 4.87095,-1.8909 5.76635,0.25212 0.21489,0.47272 0.10744,0.53575 -1.43264,1.19756 -2.57874,1.07151 -4.62024,0.4097 -4.33371,-1.44968 z m 6.87664,5.95633 v 0 c -0.28653,0.15757 -0.71632,0.25212 -1.14611,0.25212 h -0.6805 l -0.35816,-0.72485 c -0.50142,-1.03999 -0.64468,-1.57575 -0.39397,-1.70181 0.57305,-0.31515 2.82945,0.0315 3.65321,0.59879 0.35816,0.18909 -0.32234,1.16605 -1.07447,1.57575 z m -0.25071,-10.90419 c -5.65891,1.44969 -10.1717,-2.14302 -20.09269,-15.91507 -2.50711,-3.49816 -4.01137,-5.42058 -8.02275,-10.27389 -7.48551,-9.07631 -10.60148,-13.58296 -12.8937,-18.7199 -1.50426,-3.3721 -2.75782,-7.68966 -2.32803,-7.94178 0.10745,-0.0945 0.25071,-0.25212 0.28653,-0.37818 0.10745,-0.44121 0.32234,-0.31515 1.361,0.75636 4.72769,4.8218 15.22173,11.50297 27.61401,17.67991 l 1.00285,0.50424 0.42979,1.07151 c 3.22342,8.31996 5.6589,12.98418 9.59864,18.40476 3.76066,5.19997 4.72769,7.24844 4.72769,10.3054 0.0716,2.5212 -0.60887,4.22301 -1.68334,4.50664 z m 2.57874,4.75877 h -0.82377 l 0.10745,-0.34667 c 0.50142,-1.98544 2.54292,-3.1515 5.47982,-3.1515 3.79648,0 1.64753,2.71029 -2.65037,3.34059 v 0 c -0.71632,0.063 -1.64753,0.15758 -2.11313,0.15758 z m 6.05287,4.06543 c -1.07447,0.28363 -2.97271,0.0945 -3.15179,-0.28364 -0.60887,-1.38666 2.65037,-2.64726 4.58443,-1.76484 0.78794,0.34667 -0.14327,1.70181 -1.43264,2.04848 z m -5.87379,-17.45931 c -5.37238,-5.64118 -15.1501,-23.28957 -13.50258,-24.36108 l 0.35816,-0.25212 2.54293,0.8509 c 18.51679,6.27148 29.29735,13.36236 30.37183,20.01202 0.53723,3.43513 -2.57874,6.46057 -7.55714,7.34299 v 0 c -5.1933,0.88242 -8.98978,-0.2206 -12.2132,-3.59271 z m 9.88517,9.29693 c 0,-1.44969 2.90108,-2.33211 4.51279,-1.35515 1.54008,0.91394 1.07448,2.58423 -0.78795,3.02544 -2.22058,0.47273 -3.72484,-0.18909 -3.72484,-1.67029 z m 5.76635,5.79875 c -0.46561,0.0945 -1.1103,0.18909 -1.43264,0.18909 h -0.57305 l 0.10745,-0.59878 c 0.21489,-1.41817 1.61171,-2.20605 3.83229,-2.20605 1.68335,0 0.0716,2.17453 -1.93405,2.61574 z m 3.54576,-8.76116 c 0,-1.13454 1.68335,-2.3006 3.29506,-2.3006 2.57874,0 1.86242,2.04848 -0.82376,2.42666 -1.61172,0.25212 -2.4713,0.18909 -2.4713,-0.12606 z m 6.37522,4.75876 v 0 c -0.50142,0.063 -1.21774,0.12606 -1.57589,0.12606 h -0.64469 l 0.0716,-0.69333 c 0.2149,-2.1115 4.36953,-3.84483 4.83514,-1.98544 0.35816,1.2606 -0.71632,2.26908 -2.68619,2.55271 z m 3.50995,-9.73813 v 0 c -0.93121,0.18909 -2.0415,0.12606 -2.0415,-0.063 0,-0.37818 1.46845,-1.76484 2.07732,-1.95393 0.50142,-0.15758 0.46561,-0.25212 0.57305,0.91393 l 0.10745,0.97697 z m 5.90962,4.06543 v 0 c -1.68335,0.66182 -3.36669,0.47273 -3.29506,-0.40969 0.17908,-2.55272 3.47414,-3.84483 5.33656,-2.11151 0.60887,0.59879 -0.39397,1.82787 -2.0415,2.5212 z m 1.21774,-9.20237 c -1.75498,1.03999 -2.04151,-0.81939 -0.35816,-2.39514 0.75213,-0.72485 0.96702,-0.75636 1.28937,-0.34667 0.57305,0.69333 0.0716,2.14302 -0.93121,2.74181 z m 2.5071,-8.25693 v 0 c -0.14326,0.15757 -0.42979,0.2206 -0.85958,0.2206 h -0.64468 v -0.75636 c 0,-1.19757 0.46561,-1.92241 1.361,-2.1115 l 0.39398,-0.0946 0.0358,0.75636 c 0.0358,1.19757 -0.0358,1.73333 -0.28653,1.98545 z m 0.78795,-7.65814 v 0 c -0.89539,0.53575 -1.46845,0.34666 -1.75497,-0.50424 -0.28653,-0.85091 1.21774,-1.8909 2.32803,-1.6703 0.71631,0.15758 0.32234,1.6703 -0.57306,2.17454 z m 2.54293,-10.58904 v 0 c -0.17908,0.25212 -0.28653,0.28363 -1.32519,0.28363 h -1.14611 l -0.25071,-0.72484 c -0.4656,-1.44969 0.10745,-4.0024 0.93122,-4.0024 1.50426,0 2.722,3.02543 1.79079,4.44361 z m -0.50142,5.86179 c -1.00285,0.56727 -1.50427,0.37818 -1.46845,-0.6303 0.0716,-3.21453 0.10744,-3.30908 1.1461,-2.74181 1.46845,0.78788 1.64753,2.61575 0.32235,3.37211 z m 0.57305,24.07745 v 0 c -0.71632,0.94545 -2.0415,-0.47273 -1.79079,-1.95393 0.35816,-2.20605 0.71631,-3.52968 0.93121,-3.52968 1.82661,0.0315 2.36384,3.52968 0.85958,5.48361 z m -4.11882,-40.87494 -0.64469,-0.78788 0.35816,-0.53575 c 2.18477,-3.24605 7.48551,0.0315 7.52133,4.60119 v 0 c 0,0.94545 0,0.94545 -1.71916,0.44121 -2.18477,-0.69333 -4.11882,-1.98545 -5.51564,-3.71877 z m 8.09438,30.0653 c -1.36101,0.59878 -2.14895,0.18909 -2.29222,-1.13454 -0.14326,-1.38666 0.60887,-2.14302 1.50427,-1.48121 1.25355,0.85091 1.64753,2.23757 0.78795,2.61575 z m 0.39397,-6.83875 c -1.28937,1.13453 -2.86527,0.2206 -2.29221,-1.29212 0.17908,-0.47272 1.75497,-1.8909 2.11313,-1.8909 1.07448,0.0315 1.21774,2.26908 0.17908,3.18302 z m 1.75498,-7.65815 c -1.93406,0.81939 -2.54293,-0.28363 -0.93121,-1.73332 0.0358,-0.0315 0.25071,0.063 0.50142,0.15757 0.93121,0.4097 1.18192,1.2606 0.42979,1.57575 z m -1.82661,-8.03632 c 1.46845,0 2.29221,2.45817 1.18192,3.59271 -0.50142,0.50424 -1.11029,0.47272 -1.61171,-0.0945 -0.39398,-0.47272 -0.0358,-3.49816 0.42979,-3.49816 z m -0.32234,-25.90532 c -1.61172,0.50424 -3.54577,-0.063 -4.22627,-1.22909 -0.93121,-1.60726 0.50142,-3.40362 3.00853,-3.7818 3.6174,-0.50423 4.69187,3.93938 1.21774,5.01089 z m -0.10745,-19.665361 v 0 c -2.14895,0.4097 -4.47698,-0.15757 -4.69188,-1.13454 -0.53723,-2.30059 1.7908,-4.50664 4.83514,-4.50664 4.90677,0 4.79932,4.69573 -0.14326,5.64118 z m 4.79932,-18.34172 v 0 c -1.32518,0.25212 -2.54292,0.12606 -3.6174,-0.34666 -3.83229,-1.79636 -1.82661,-7.78421 2.65037,-7.81572 6.05288,-0.063 6.91246,7.05936 0.96703,8.16238 z m 0.78795,6.39754 c -0.17908,0.22061 -0.53724,0.66182 -0.82376,0.97697 v 0 l -0.50143,0.59878 h -1.03866 c -4.26208,-0.063 -4.69187,-3.05695 -0.50142,-3.49816 2.18477,-0.22061 3.79648,0.8509 2.86527,1.92241 z m 0.32234,17.963551 c -0.0716,0.97696 -0.35816,1.41817 -1.25355,1.76484 v 0 c -1.89824,0.72484 -1.89824,-1.54424 0.0358,-2.33211 1.21774,-0.504241 1.28937,-0.47273 1.21774,0.56727 z m 2.57874,-7.216941 c -0.6805,0.59879 -1.79079,1.07151 -2.0415,0.85091 -0.53724,-0.47273 0.21489,-2.23756 1.25355,-2.99392 0.39398,-0.28364 0.85958,-0.72485 1.03866,-0.97697 l 0.32235,-0.44121 0.25071,0.50424 c 0.53723,1.04 0.25071,2.11151 -0.82377,3.05695 z m -2.57874,-29.18288 v 0 c -8.34509,1.73333 -13.96817,-6.05087 -5.80216,-8.06783 3.29505,-0.81939 9.13303,0.0945 10.92383,1.67029 l 0.4656,0.44121 -0.17908,1.04 c -0.39397,2.52119 -2.32803,4.28603 -5.40819,4.91633 z m 7.01991,-2.26908 c 0.93121,-0.0315 1.21773,1.19757 0.71631,3.02544 l -0.17908,0.59879 h -1.21773 -1.21774 l -0.28653,-0.53576 c -0.82376,-1.54423 0.25071,-3.05695 2.18477,-3.08847 z m -0.57306,21.27262 c -1.25355,-0.063 -1.79079,-0.53575 -1.89824,-1.60726 l -0.0716,-0.72485 0.57306,-0.15757 c 1.43263,-0.44121 1.75497,-0.15758 1.79079,1.60726 v 0.91394 z m 2.29222,-10.49449 c -1.07448,0.31515 -2.50711,-0.063 -3.76067,-0.97696 l -0.4656,-0.34667 0.25071,-0.44121 c 1.03866,-1.76484 4.15464,-1.03999 4.36953,1.00848 0.0716,0.59879 0.0716,0.59879 -0.39397,0.75636 z m 1.8266,-21.74534 c -0.57305,0.53575 -2.18476,1.2606 -3.54576,1.57575 -5.26493,1.22908 -13.93236,-0.6303 -15.54408,-3.37211 l -0.21489,-0.37818 0.78795,-0.31515 c 5.94543,-2.39514 16.72599,-1.51272 18.5526,1.54424 l 0.35816,0.56727 z m 3.18761,17.869 v 0 c -1.43263,0.47272 -2.00568,0.12606 -2.00568,-1.22909 0,-1.35514 0.89539,-2.20605 2.43547,-2.26908 l 0.8954,-0.063 0.17908,0.4097 c 0.53724,1.35514 -0.0716,2.67877 -1.50427,3.1515 z m 3.93975,-9.29692 c -0.50143,0.37818 -1.54009,0.88242 -2.39967,1.07151 -2.25639,0.56727 -3.90392,-0.59879 -3.76066,-2.67878 0.14326,-2.20605 2.43548,-2.99392 5.26493,-1.82787 l 1.07447,0.44121 0.0358,1.35515 c 0.0716,1.2606 0.0358,1.41817 -0.21489,1.63878 z m 4.22626,-5.60967 c -1.75497,0.78787 -4.083,-0.0315 -3.79647,-1.35515 0.50142,-2.33211 5.444,-3.1515 5.444,-0.91393 0,1.03999 -0.53724,1.76484 -1.64753,2.26908 z m 4.79933,-11.9757 c -1.36101,0.59879 -3.72485,0.53576 -3.72485,-0.063 0,-1.44969 2.68619,-2.42665 3.93974,-1.41817 0.78795,0.6303 0.71632,1.07151 -0.21489,1.4812 z m 0.75213,-7.65814 c -0.28653,0.25212 -4.19045,0.44121 -4.19045,0.18909 0,-0.28364 1.03866,-0.88242 1.71916,-1.04 1.39681,-0.28363 3.08016,0.28364 2.47129,0.85091 z"
   id="path6"
   style="stroke-width:0.335967" />
</svg>
