<?xml version="1.0" encoding="UTF-8" standalone="no"?>
<svg
   xmlns:dc="http://purl.org/dc/elements/1.1/"
   xmlns:cc="http://creativecommons.org/ns#"
   xmlns:rdf="http://www.w3.org/1999/02/22-rdf-syntax-ns#"
   xmlns:svg="http://www.w3.org/2000/svg"
   xmlns="http://www.w3.org/2000/svg"
   xmlns:sodipodi="http://sodipodi.sourceforge.net/DTD/sodipodi-0.dtd"
   xmlns:inkscape="http://www.inkscape.org/namespaces/inkscape"
   width="300"
   height="300"
   viewBox="0 0 79.374998 79.375002"
   version="1.1"
   id="svg8"
   inkscape:version="1.0.1 (3bc2e813f5, 2020-09-07)"
   sodipodi:docname="HAND2.svg">
  <defs
     id="defs2" />
  <sodipodi:namedview
     id="base"
     pagecolor="#ffffff"
     bordercolor="#666666"
     borderopacity="1.0"
     inkscape:pageopacity="0.0"
     inkscape:pageshadow="2"
     inkscape:zoom="0.98994949"
     inkscape:cx="330.78701"
     inkscape:cy="184.06742"
     inkscape:document-units="mm"
     inkscape:current-layer="layer1"
     inkscape:document-rotation="0"
     showgrid="false"
     inkscape:window-width="1920"
     inkscape:window-height="1001"
     inkscape:window-x="-9"
     inkscape:window-y="-9"
     inkscape:window-maximized="1"
     units="px" />
  <metadata
     id="metadata5">
    <rdf:RDF>
      <cc:Work
         rdf:about="">
        <dc:format>image/svg+xml</dc:format>
        <dc:type
           rdf:resource="http://purl.org/dc/dcmitype/StillImage" />
        <dc:title></dc:title>
      </cc:Work>
    </rdf:RDF>
  </metadata>
  <g
     inkscape:label="Layer 1"
     inkscape:groupmode="layer"
     id="layer1">
    <g
       id="g872"
       transform="matrix(0.27105265,0.52463713,-0.38788761,0.33168834,-6.4991311,-60.956853)"
       style="opacity:1;fill:#e9df8d;fill-opacity:1">
      <path
         style="color:#000000;font-style:normal;font-variant:normal;font-weight:normal;font-stretch:normal;font-size:medium;line-height:normal;font-family:sans-serif;font-variant-ligatures:normal;font-variant-position:normal;font-variant-caps:normal;font-variant-numeric:normal;font-variant-alternates:normal;font-variant-east-asian:normal;font-feature-settings:normal;font-variation-settings:normal;text-indent:0;text-align:start;text-decoration:none;text-decoration-line:none;text-decoration-style:solid;text-decoration-color:#000000;letter-spacing:normal;word-spacing:normal;text-transform:none;writing-mode:lr-tb;direction:ltr;text-orientation:mixed;dominant-baseline:auto;baseline-shift:baseline;text-anchor:start;white-space:normal;shape-padding:0;shape-margin:0;inline-size:0;clip-rule:nonzero;display:inline;overflow:visible;visibility:visible;isolation:auto;mix-blend-mode:normal;color-interpolation:sRGB;color-interpolation-filters:linearRGB;solid-color:#000000;solid-opacity:1;vector-effect:none;fill:#e9df8d;fill-opacity:1;fill-rule:nonzero;stroke:none;stroke-width:4.17769;stroke-linecap:butt;stroke-linejoin:miter;stroke-miterlimit:4;stroke-dasharray:none;stroke-dashoffset:0;stroke-opacity:1;color-rendering:auto;image-rendering:auto;shape-rendering:auto;text-rendering:auto;enable-background:accumulate;stop-color:#000000;stop-opacity:1"
         d="m 182.38848,-32.85205 c 15.43961,0 17.20987,11.021733 17.20987,16.282133 0,5.2604 -11.24836,11.8681759 -26.68797,11.8681759 -15.4396,0 -24.57563,-2.552243 -29.05068,-11.8681759 -2.39179,-4.979106 23.08918,-16.282133 38.52878,-16.282133 z"
         id="path874"
         sodipodi:nodetypes="sssss" />
      <path
         style="color:#000000;font-style:normal;font-variant:normal;font-weight:normal;font-stretch:normal;font-size:medium;line-height:normal;font-family:sans-serif;font-variant-ligatures:normal;font-variant-position:normal;font-variant-caps:normal;font-variant-numeric:normal;font-variant-alternates:normal;font-variant-east-asian:normal;font-feature-settings:normal;font-variation-settings:normal;text-indent:0;text-align:start;text-decoration:none;text-decoration-line:none;text-decoration-style:solid;text-decoration-color:#000000;letter-spacing:normal;word-spacing:normal;text-transform:none;writing-mode:lr-tb;direction:ltr;text-orientation:mixed;dominant-baseline:auto;baseline-shift:baseline;text-anchor:start;white-space:normal;shape-padding:0;shape-margin:0;inline-size:0;clip-rule:nonzero;display:inline;overflow:visible;visibility:visible;isolation:auto;mix-blend-mode:normal;color-interpolation:sRGB;color-interpolation-filters:linearRGB;solid-color:#000000;solid-opacity:1;vector-effect:none;fill:#e9df8d;fill-opacity:1;fill-rule:nonzero;stroke:none;stroke-width:4.17769;stroke-linecap:butt;stroke-linejoin:miter;stroke-miterlimit:4;stroke-dasharray:none;stroke-dashoffset:0;stroke-opacity:1;color-rendering:auto;image-rendering:auto;shape-rendering:auto;text-rendering:auto;enable-background:accumulate;stop-color:#000000;stop-opacity:1"
         d="m 171.72852,-28.154297 c -7.91079,0 -15.05273,1.065389 -20.39844,2.886719 -2.67286,0.910665 -4.90283,1.999748 -6.59961,3.371094 -1.69678,1.371346 -2.95899,3.188455 -2.95899,5.326172 0,2.137716 1.26221,3.956778 2.95899,5.328124 1.69678,1.3713466 3.92675,2.4584764 6.59961,3.3691411 5.34571,1.8213296 12.48765,2.8867188 20.39844,2.8867188 7.91078,0 15.05272,-1.0653893 20.39843,-2.8867188 2.67286,-0.9106647 4.90479,-1.9977945 6.60157,-3.3691411 1.69677,-1.371346 2.95898,-3.190408 2.95898,-5.328124 0,-2.137717 -1.26221,-3.954826 -2.95898,-5.326172 -1.69678,-1.371346 -3.92871,-2.460429 -6.60157,-3.371094 -5.34571,-1.82133 -12.48765,-2.886719 -20.39843,-2.886719 z m 0,4.177735 c 7.52882,0 14.32173,1.052838 19.05078,2.664062 2.36452,0.805612 4.20598,1.761876 5.32226,2.664062 1.11629,0.902187 1.40821,1.585642 1.40821,2.078126 0,0.492483 -0.29192,1.175938 -1.40821,2.078124 -1.11628,0.902187 -2.95774,1.860404 -5.32226,2.666016 -4.72905,1.611224 -11.52196,2.6621095 -19.05078,2.6621095 -7.52882,0 -14.32174,-1.0508855 -19.05079,-2.6621095 -2.36452,-0.805612 -4.20598,-1.763829 -5.32226,-2.666016 -1.11628,-0.902186 -1.40625,-1.585641 -1.40625,-2.078124 0,-0.492484 0.28997,-1.175939 1.40625,-2.078126 1.11628,-0.902186 2.95774,-1.85845 5.32226,-2.664062 4.72905,-1.611224 11.52197,-2.664062 19.05079,-2.664062 z"
         id="path876" />
    </g>
    <rect
       style="fill:#e9df8d;fill-opacity:1;stroke-width:2.49199"
       id="rect839"
       width="39.525887"
       height="8.4410267"
       x="13.812368"
       y="28.575899"
       ry="4.2205133" />
    <rect
       style="fill:#e9df8d;fill-opacity:1;stroke-width:2.67136"
       id="rect839-4"
       width="45.42083"
       height="8.4410267"
       x="9.2648373"
       y="36.841068"
       ry="4.2205133" />
    <rect
       style="fill:#e9df8d;fill-opacity:1;stroke-width:2.67135"
       id="rect839-4-1"
       width="45.42083"
       height="8.4410267"
       x="13.353866"
       y="45.083542"
       ry="4.2205133" />
    <rect
       style="fill:#e9df8d;fill-opacity:1;stroke-width:2.67135"
       id="rect839-4-4"
       width="45.42083"
       height="8.4410267"
       x="16.890835"
       y="52.117729"
       ry="4.2205133"
       inkscape:transform-center-x="6.9055098"
       inkscape:transform-center-y="8.4410221" />
    <rect
       style="fill:#ea91e8;fill-opacity:1;stroke-width:1.61855"
       id="rect833"
       width="18.963696"
       height="35.188988"
       x="51.228378"
       y="25.669563"
       ry="4.7408476" />
  </g>
</svg>
