<?xml version="1.0" encoding="UTF-8" standalone="no"?>
<svg
   xmlns:dc="http://purl.org/dc/elements/1.1/"
   xmlns:cc="http://creativecommons.org/ns#"
   xmlns:rdf="http://www.w3.org/1999/02/22-rdf-syntax-ns#"
   xmlns:svg="http://www.w3.org/2000/svg"
   xmlns="http://www.w3.org/2000/svg"
   xmlns:sodipodi="http://sodipodi.sourceforge.net/DTD/sodipodi-0.dtd"
   xmlns:inkscape="http://www.inkscape.org/namespaces/inkscape"
   width="800"
   height="500"
   viewBox="0 0 211.66664 132.29167"
   version="1.1"
   id="svg8"
   inkscape:version="1.0.1 (3bc2e813f5, 2020-09-07)"
   sodipodi:docname="Wall.svg">
  <defs
     id="defs2" />
  <sodipodi:namedview
     id="base"
     pagecolor="#ffffff"
     bordercolor="#666666"
     borderopacity="1.0"
     inkscape:pageopacity="0.0"
     inkscape:pageshadow="2"
     inkscape:zoom="0.37611257"
     inkscape:cx="329.31865"
     inkscape:cy="13.228616"
     inkscape:document-units="mm"
     inkscape:current-layer="layer1"
     inkscape:document-rotation="0"
     showgrid="false"
     inkscape:window-width="1920"
     inkscape:window-height="1001"
     inkscape:window-x="-9"
     inkscape:window-y="-9"
     inkscape:window-maximized="1"
     units="px" />
  <metadata
     id="metadata5">
    <rdf:RDF>
      <cc:Work
         rdf:about="">
        <dc:format>image/svg+xml</dc:format>
        <dc:type
           rdf:resource="http://purl.org/dc/dcmitype/StillImage" />
        <dc:title></dc:title>
      </cc:Work>
    </rdf:RDF>
  </metadata>
  <g
     inkscape:label="Layer 1"
     inkscape:groupmode="layer"
     id="layer1">
    <path
       style="fill:#808080;stroke:#000000;stroke-width:0.854956;stroke-linecap:butt;stroke-linejoin:miter;stroke-opacity:1"
       d="m 102.35991,57.730345 67.44416,24.773757 5.62035,-35.67421 c 0,0 -5.24566,-13.873306 -10.86602,-9.414021 -5.62034,4.459273 -5.99502,4.459273 -10.11662,1.486422 -4.12158,-2.972843 1.12408,-18.332583 -13.86352,-25.76471 -14.9876,-7.4321277 -7.86849,6.936652 -10.11661,7.927602 -2.24815,0.990951 -3.7469,5.945704 -10.86601,2.477376 -7.11911,-3.468326 -9.74193,-8.918554 -13.86353,-3.963802 -4.12158,4.954748 -3.14739,7.43213 -3.14739,7.43213 z"
       id="path10"
       sodipodi:nodetypes="cccsssssscc" />
    <path
       style="fill:#4d4d4d;stroke:#000000;stroke-width:0.899439;stroke-linecap:butt;stroke-linejoin:miter;stroke-opacity:1"
       d="M 102.33616,57.762024 33.153572,99.920844 30.253704,51.314202 c 0,0 -1.242801,-9.919713 5.799737,-6.44781 7.042539,3.471903 13.256543,5.455841 15.327877,2.479923 2.071336,-2.975908 6.214007,-14.383597 11.599476,-9.919714 5.385471,4.463872 0.414267,9.919714 8.28534,10.415709 7.871073,0.495985 9.113872,-3.471903 8.699606,-12.895653 -0.414267,-9.423729 12.013742,-7.935768 12.013742,-7.935768 h 10.605238 z"
       id="path12" />
    <path
       style="fill:none;stroke:#000000;stroke-width:0.854956;stroke-linecap:butt;stroke-linejoin:miter;stroke-opacity:1"
       d="m 106.66885,30.231475 c 0,0 50.77046,15.111986 58.63894,18.82806"
       id="path14" />
    <path
       style="fill:none;stroke:#000000;stroke-width:0.854956;stroke-linecap:butt;stroke-linejoin:miter;stroke-opacity:1"
       d="m 103.48398,38.406818 c 0,0 62.01116,19.323527 63.32256,21.800906"
       id="path16" />
    <path
       style="fill:none;stroke:#000000;stroke-width:0.854956;stroke-linecap:butt;stroke-linejoin:miter;stroke-opacity:1"
       d="M 163.99637,69.126281 105.73211,50.545955"
       id="path18" />
    <path
       style="fill:none;stroke:#000000;stroke-width:0.854956;stroke-linecap:butt;stroke-linejoin:miter;stroke-opacity:1"
       d="m 114.34999,32.708851 -0.56204,9.414031"
       id="path20" />
    <path
       style="fill:none;stroke:#000000;stroke-width:0.854956;stroke-linecap:butt;stroke-linejoin:miter;stroke-opacity:1"
       d="m 125.77801,45.095735 0.93674,-9.414033"
       id="path22" />
    <path
       style="fill:none;stroke:#000000;stroke-width:0.854956;stroke-linecap:butt;stroke-linejoin:miter;stroke-opacity:1"
       d="m 137.3934,49.307271 0.74937,-9.166294"
       id="path24" />
    <path
       style="fill:none;stroke:#000000;stroke-width:0.854956;stroke-linecap:butt;stroke-linejoin:miter;stroke-opacity:1"
       d="m 151.25693,53.518808 0.93672,-8.67081"
       id="path26" />
    <path
       style="fill:none;stroke:#000000;stroke-width:0.854956;stroke-linecap:butt;stroke-linejoin:miter;stroke-opacity:1"
       d="m 119.40828,43.361566 -1.12406,11.395936"
       id="path28" />
    <path
       style="fill:none;stroke:#000000;stroke-width:0.854956;stroke-linecap:butt;stroke-linejoin:miter;stroke-opacity:1"
       d="M 130.2743,57.978082 131.5857,47.07764"
       id="path30" />
    <path
       style="fill:none;stroke:#000000;stroke-width:0.854956;stroke-linecap:butt;stroke-linejoin:miter;stroke-opacity:1"
       d="m 143.76314,62.189629 1.3114,-10.157242"
       id="path32" />
    <path
       style="fill:none;stroke:#000000;stroke-width:0.854956;stroke-linecap:butt;stroke-linejoin:miter;stroke-opacity:1"
       d="m 135.51995,61.198671 -0.74937,7.1844"
       id="path34" />
    <path
       style="fill:none;stroke:#000000;stroke-width:0.854956;stroke-linecap:butt;stroke-linejoin:miter;stroke-opacity:1"
       d="m 123.71722,56.243924 -0.56203,6.936652"
       id="path36" />
    <path
       style="fill:none;stroke:#000000;stroke-width:0.854956;stroke-linecap:butt;stroke-linejoin:miter;stroke-opacity:1"
       d="m 125.21597,24.533507 24.91689,6.936661"
       id="path38" />
    <path
       style="fill:none;stroke:#000000;stroke-width:0.854956;stroke-linecap:butt;stroke-linejoin:miter;stroke-opacity:1"
       d="m 131.77305,26.019935 -1.3114,11.148188"
       id="path40" />
    <path
       style="fill:none;stroke:#000000;stroke-width:0.854956;stroke-linecap:butt;stroke-linejoin:miter;stroke-opacity:1"
       d="m 120.15767,24.781248 -0.93673,9.414034"
       id="path42" />
    <path
       style="fill:none;stroke:#000000;stroke-width:0.854956;stroke-linecap:butt;stroke-linejoin:miter;stroke-opacity:1"
       d="m 132.70977,15.61496 c 1.12408,0 10.30399,2.477373 13.86353,9.166288"
       id="path44" />
    <path
       style="fill:none;stroke:#000000;stroke-width:0.854956;stroke-linecap:butt;stroke-linejoin:miter;stroke-opacity:1"
       d="m 165.86983,40.140977 c 5.80769,5.202484 5.62034,6.193441 5.62034,6.193441"
       id="path46" />
    <path
       style="fill:none;stroke:#000000;stroke-width:0.899439;stroke-linecap:butt;stroke-linejoin:miter;stroke-opacity:1"
       d="m 50.552784,48.090292 c 0,0 6.214006,-1.487954 8.906741,-6.199819"
       id="path48" />
    <path
       style="fill:none;stroke:#000000;stroke-width:0.899439;stroke-linecap:butt;stroke-linejoin:miter;stroke-opacity:1"
       d="m 91.979482,27.010889 c 0,0 -6.421139,1.735948 -8.078205,3.967895 -1.657069,2.231937 -1.035669,11.903659 -1.035669,11.903659"
       id="path50" />
    <path
       style="fill:none;stroke:#000000;stroke-width:0.899439;stroke-linecap:butt;stroke-linejoin:miter;stroke-opacity:1"
       d="M 34.81064,59.249978 66.087797,44.618399"
       id="path52" />
    <path
       style="fill:none;stroke:#000000;stroke-width:0.899439;stroke-linecap:butt;stroke-linejoin:miter;stroke-opacity:1"
       d="M 82.865608,37.178598 97.986352,31.474767"
       id="path54" />
    <path
       style="fill:none;stroke:#000000;stroke-width:0.899439;stroke-linecap:butt;stroke-linejoin:miter;stroke-opacity:1"
       d="M 42.681713,68.673728 96.950685,42.882443"
       id="path56" />
    <path
       style="fill:none;stroke:#000000;stroke-width:0.899439;stroke-linecap:butt;stroke-linejoin:miter;stroke-opacity:1"
       d="M 35.846307,83.255724 91.150948,55.976496"
       id="path58" />
    <path
       style="fill:none;stroke:#000000;stroke-width:0.899439;stroke-linecap:butt;stroke-linejoin:miter;stroke-opacity:1"
       d="m 54.488321,52.05819 0.6214,8.679752"
       id="path60" />
    <path
       style="fill:none;stroke:#000000;stroke-width:0.899439;stroke-linecap:butt;stroke-linejoin:miter;stroke-opacity:1"
       d="m 73.751735,47.346315 0.207134,4.711875"
       id="path62" />
    <path
       style="fill:none;stroke:#000000;stroke-width:0.899439;stroke-linecap:butt;stroke-linejoin:miter;stroke-opacity:1"
       d="m 93.429417,33.706695 v 7.935786"
       id="path64" />
    <path
       style="fill:none;stroke:#000000;stroke-width:0.899439;stroke-linecap:butt;stroke-linejoin:miter;stroke-opacity:1"
       d="m 85.351212,51.810198 0.207131,5.207849"
       id="path66" />
    <path
       style="fill:none;stroke:#000000;stroke-width:0.899439;stroke-linecap:butt;stroke-linejoin:miter;stroke-opacity:1"
       d="m 64.637861,58.754003 0.828535,8.927745"
       id="path68" />
    <path
       style="fill:none;stroke:#000000;stroke-width:0.899439;stroke-linecap:butt;stroke-linejoin:miter;stroke-opacity:1"
       d="m 48.274316,66.441786 0.414268,7.439791"
       id="path70" />
    <path
       style="fill:none;stroke:#000000;stroke-width:0.899439;stroke-linecap:butt;stroke-linejoin:miter;stroke-opacity:1"
       d="m 58.838125,71.897638 0.414266,8.927734"
       id="path72" />
    <path
       style="fill:none;stroke:#000000;stroke-width:0.899439;stroke-linecap:butt;stroke-linejoin:miter;stroke-opacity:1"
       d="m 42.267445,80.081395 0.414268,8.927745"
       id="path74" />
    <path
       style="fill:none;stroke:#000000;stroke-width:0.899439;stroke-linecap:butt;stroke-linejoin:miter;stroke-opacity:1"
       d="m 77.065871,63.71386 0.414267,7.687783"
       id="path76" />
    <path
       style="fill:#333333;stroke:#000000;stroke-width:0.689538;stroke-linecap:butt;stroke-linejoin:miter;stroke-opacity:1"
       d="M 46.819803,88.666296 102.28752,57.762024 161.57565,80.41785 c 4.41641,-0.133515 14.58299,3.681435 9.99492,16.422901 -5.58584,15.512329 -34.20128,24.917909 -59.10864,24.085569 C 87.43047,120.08983 -9.214023,118.58656 46.819803,88.666296"
       id="path78"
       sodipodi:nodetypes="cccssc" />
  </g>
</svg>
