<?xml version="1.0" encoding="UTF-8" standalone="no"?>
<svg
   xmlns:dc="http://purl.org/dc/elements/1.1/"
   xmlns:cc="http://creativecommons.org/ns#"
   xmlns:rdf="http://www.w3.org/1999/02/22-rdf-syntax-ns#"
   xmlns:svg="http://www.w3.org/2000/svg"
   xmlns="http://www.w3.org/2000/svg"
   xmlns:sodipodi="http://sodipodi.sourceforge.net/DTD/sodipodi-0.dtd"
   xmlns:inkscape="http://www.inkscape.org/namespaces/inkscape"
   width="500"
   height="500"
   viewBox="0 0 132.29166 132.29167"
   version="1.1"
   id="svg934"
   inkscape:version="1.0.1 (3bc2e813f5, 2020-09-07)"
   sodipodi:docname="Warrior.svg">
  <defs
     id="defs928" />
  <sodipodi:namedview
     id="base"
     pagecolor="#ffffff"
     bordercolor="#666666"
     borderopacity="1.0"
     inkscape:pageopacity="0.0"
     inkscape:pageshadow="2"
     inkscape:zoom="0.7"
     inkscape:cx="323.3194"
     inkscape:cy="521.73526"
     inkscape:document-units="mm"
     inkscape:current-layer="layer1"
     inkscape:document-rotation="0"
     showgrid="false"
     inkscape:window-width="1920"
     inkscape:window-height="1001"
     inkscape:window-x="-9"
     inkscape:window-y="-9"
     inkscape:window-maximized="1"
     units="px" />
  <metadata
     id="metadata931">
    <rdf:RDF>
      <cc:Work
         rdf:about="">
        <dc:format>image/svg+xml</dc:format>
        <dc:type
           rdf:resource="http://purl.org/dc/dcmitype/StillImage" />
        <dc:title></dc:title>
      </cc:Work>
    </rdf:RDF>
  </metadata>
  <g
     inkscape:label="Layer 1"
     inkscape:groupmode="layer"
     id="layer1">
    <path
       style="fill:#808080;stroke:#000000;stroke-width:0.6268;stroke-linecap:butt;stroke-linejoin:miter;stroke-opacity:1"
       d="m 122.06326,72.290766 2.79778,0.181769 3.55736,1.817667 3.24235,2.72652 -1.38958,1.817684 -3.85995,-2.181214 -2.32217,-0.908837 -4.03296,-0.545307 z"
       id="path1613"
       sodipodi:nodetypes="ccccccccc" />
    <path
       style="fill:#666666;stroke:#000000;stroke-width:0.61238;stroke-linecap:butt;stroke-linejoin:miter;stroke-opacity:1"
       d="m 112.79936,79.662725 1.86244,4.142365 6.36337,2.416377 1.24164,-2.243784 -3.41654,-2.193606 -0.77398,-2.121352 z"
       id="path1611" />
    <path
       style="fill:#999999;stroke:#000000;stroke-width:0.70359;stroke-linecap:butt;stroke-linejoin:miter;stroke-opacity:1"
       d="m 110.85933,76.693159 2.29808,3.918594 h 5.21596 c 0,0 1.38069,-3.688088 3.06821,-4.840619 1.68752,-1.152521 1.07388,-3.457582 1.07388,-3.457582 l -8.89783,-0.461013 z"
       id="path1607" />
    <path
       style="fill:#b3b3b3;stroke:#000000;stroke-width:0.835481;stroke-linecap:butt;stroke-linejoin:miter;stroke-opacity:1"
       d="m 95.068165,49.032481 c 0,0 -1.297905,8.067695 1.946851,11.755785 3.244764,3.688088 13.844314,15.904893 13.844314,15.904893 0,0 6.48951,-0.230507 6.48951,-3.688089 0,-3.457592 -8.86901,-19.823488 -11.46482,-23.28107 -2.5958,-3.457591 -10.815855,-0.691519 -10.815855,-0.691519 z"
       id="path1605" />
    <path
       style="fill:#333333;stroke:#000000;stroke-width:0.221054px;stroke-linecap:butt;stroke-linejoin:miter;stroke-opacity:1"
       d="m 84.252302,30.131018 c 0,0 24.660168,17.287921 16.223798,23.511576 C 92.03972,59.866241 77.330152,42.347815 77.330152,42.347815 Z"
       id="path1603" />
    <path
       style="fill:#333333;stroke:#000000;stroke-width:0.73252;stroke-linecap:butt;stroke-linejoin:miter;stroke-opacity:1"
       d="m 46.66507,31.00597 c 0,0 -28.120767,5.005105 -25.639522,14.273826 2.481244,9.268712 29.774928,0.926863 30.395241,-3.522119 C 52.041098,37.308704 46.66507,31.00597 46.66507,31.00597 Z"
       id="path1593" />
    <path
       style="fill:#333333;stroke:#000000;stroke-width:0.835481;stroke-linecap:butt;stroke-linejoin:miter;stroke-opacity:1"
       d="m 32.331816,74.84911 17.95433,6.223655 c 0,0 4.75898,1.844049 11.89745,1.613543 7.138465,-0.230506 22.92963,-0.461013 22.92963,-0.461013 0,0 6.70583,-4.1491 4.75898,-8.528707 -1.946859,-4.379607 -10.815867,-5.071125 -10.815867,-5.071125 l -5.407933,-0.230506 0.216317,-10.14225 c 0,0 -17.089059,1.613534 -19.468549,0 -2.379489,-1.613542 -1.946855,8.989719 -1.946855,8.989719 L 35.143941,60.557759 c 0,0 -4.326346,8.528708 -2.812125,14.291351 z"
       id="path1579"
       sodipodi:nodetypes="ccscscccsccc" />
    <path
       style="fill:#808080;stroke:#000000;stroke-width:0.835481;stroke-linecap:butt;stroke-linejoin:miter;stroke-opacity:1"
       d="m 77.974758,100.66574 15.35852,-27.430172 c 0,0 -9.085322,-1.844041 -12.113763,8e-6 -3.02844,1.84404 -4.758988,12.216796 -5.191616,14.752362 -0.432643,2.535559 -5.182914,9.704402 -5.182914,9.704402 0,0 0.463067,4.35181 7.129773,2.9734 z"
       id="path1577"
       sodipodi:nodetypes="ccsscc" />
    <path
       style="fill:#808080;stroke:#000000;stroke-width:0.835481;stroke-linecap:butt;stroke-linejoin:miter;stroke-opacity:1"
       d="m 34.494988,106.65889 c 0,0 0.432634,-18.209939 2.37949,-20.284494 1.946855,-2.074555 2.379489,-21.667528 0.865269,-25.58613 -1.514221,-3.918595 -11.248498,-7.145672 -11.248498,-7.145672 l -4.326345,9.220226 c 0,0 6.273202,41.72152 5.840565,44.25709 -0.432633,2.53555 6.489519,-0.46102 6.489519,-0.46102 z"
       id="path1561" />
    <path
       style="fill:#4d4d4d;stroke:#000000;stroke-width:0.417741;stroke-linecap:butt;stroke-linejoin:miter;stroke-opacity:1"
       d="m 29.952327,106.19788 -3.461078,-52.555286 -4.326345,9.220226 6.056885,43.10456 z"
       id="path1565"
       sodipodi:nodetypes="ccccc" />
    <path
       style="fill:#808080;stroke:#000000;stroke-width:0.835481;stroke-linecap:butt;stroke-linejoin:miter;stroke-opacity:1"
       d="m 16.97329,124.40783 11.248497,-2.76607 11.248498,-13.83035 c 0,0 -12.546401,-11.064259 -16.872746,-2.30505 -4.326344,8.75921 -5.624249,18.90147 -5.624249,18.90147 z"
       id="path992" />
    <path
       style="fill:#4d4d4d;stroke:#000000;stroke-width:0.835481;stroke-linecap:butt;stroke-linejoin:miter;stroke-opacity:1"
       d="m 28.221787,121.64176 -8.436371,-9.45073 -2.812126,12.2168 11.248497,-2.76607"
       id="path1557"
       sodipodi:nodetypes="cccc" />
    <path
       style="fill:#666666;stroke:#000000;stroke-width:0.835481;stroke-linecap:butt;stroke-linejoin:miter;stroke-opacity:1"
       d="m 66.527333,105.49709 4.317652,-7.80475 13.796474,1.595001 4.365477,8.985089 -22.479603,-2.77534"
       id="path1571"
       sodipodi:nodetypes="ccccc" />
    <path
       style="fill:#333333;stroke:#000000;stroke-width:0.835481;stroke-linecap:butt;stroke-linejoin:miter;stroke-opacity:1"
       d="m 68.240481,104.58434 c 0,0 -4.110035,0.92202 -4.110035,5.07112 0,4.14911 4.326344,3.9186 4.326344,3.9186 h 14.276943 l 6.273203,-5.30163 -5.624251,-4.1491 z"
       id="path1569" />
    <path
       style="fill:#808080;stroke:#000000;stroke-width:0.417741;stroke-linecap:butt;stroke-linejoin:miter;stroke-opacity:1"
       d="m 89.006936,108.27243 -4.365477,-8.985089 -1.258774,4.835989 z"
       id="path1573" />
    <path
       style="fill:#666666;stroke:#000000;stroke-width:0.835481;stroke-linecap:butt;stroke-linejoin:miter;stroke-opacity:1"
       d="m 50.710086,50.63213 1.297902,9.450732 c 0,0 9.085325,4.149101 12.546409,4.149101 3.461073,0 10.166905,-4.610114 10.166905,-4.610114 l 1.297905,-9.911743 z"
       id="path1581" />
    <path
       style="fill:#999999;stroke:#000000;stroke-width:0.835481;stroke-linecap:butt;stroke-linejoin:miter;stroke-opacity:1"
       d="m 51.107936,27.844483 c 0,0 -9.734279,5.762635 0.432636,24.4336 4.555883,8.366629 11.88565,6.739166 17.394631,4.175466 6.784864,-3.157451 11.366894,-11.33503 11.366894,-11.33503 0,0 8.877702,-15.429996 -3.236064,-19.34858 -12.113771,-3.918597 -25.958097,2.074544 -25.958097,2.074544 z"
       id="path1583"
       sodipodi:nodetypes="csscsc" />
    <path
       style="fill:#4d4d4d;stroke:#000000;stroke-width:0.835481;stroke-linecap:butt;stroke-linejoin:miter;stroke-opacity:1"
       d="M 47.03704,37.046183 63.477155,43.730851 62.395567,60.096756 48.551261,54.56461 Z"
       id="path1585" />
    <path
       style="fill:#808080;stroke:#000000;stroke-width:0.835481;stroke-linecap:butt;stroke-linejoin:miter;stroke-opacity:1"
       d="M 62.395567,60.096756 63.477155,43.730851 83.166368,37.276689 78.407394,54.56461 Z"
       id="path1587" />
    <path
       style="fill:#808080;stroke:#000000;stroke-width:0.959693;stroke-linecap:butt;stroke-linejoin:miter;stroke-opacity:1"
       d="m 34.606178,33.819107 17.410507,1.844049 -0.570837,-13.369334 c 0,0 -12.843814,-0.461011 -16.83967,11.525285 z"
       id="path1589" />
    <path
       style="fill:#808080;stroke:#000000;stroke-width:0.963127;stroke-linecap:butt;stroke-linejoin:miter;stroke-opacity:1"
       d="M 96.278264,33.12614 78.73762,34.969628 79.312727,21.604327 c 0,0 12.939815,-0.460874 16.965537,11.521813 z"
       id="path1591" />
    <path
       style="fill:#b3b3b3;stroke:#000000;stroke-width:0.738376;stroke-linecap:butt;stroke-linejoin:miter;stroke-opacity:1"
       d="m 18.454684,46.003086 c 0,0 8.949747,-3.876412 12.968433,-3.682594 4.018687,0.193827 21.57689,8.046315 23.787168,8.43395 2.210277,0.387644 0.803737,6.00845 0.803737,6.00845 0,0 -17.280352,2.325845 -26.121464,1.162922 C 21.051446,56.762892 18.454684,46.003086 18.454684,46.003086 Z"
       id="path1597"
       sodipodi:nodetypes="csscsc" />
    <path
       style="fill:#808080;stroke:#000000;stroke-width:0.738376;stroke-linecap:butt;stroke-linejoin:miter;stroke-opacity:1"
       d="m 18.454684,46.003086 c 0,0 11.589171,4.187731 15.56424,4.846113 8.128715,1.346357 19.630035,3.205697 21.840312,3.593331 2.210278,0.387645 0.154786,2.320362 0.154786,2.320362 0,0 -17.280352,2.325845 -26.121464,1.162922 C 21.051446,56.762892 18.454684,46.003086 18.454684,46.003086 Z"
       id="path1599"
       sodipodi:nodetypes="csscsc" />
    <path
       style="fill:#4d4d4d;stroke:#000000;stroke-width:0.896246;stroke-linecap:butt;stroke-linejoin:miter;stroke-opacity:1"
       d="m 56.248525,62.79147 1.91214,8.124944 -0.819654,5.099551 h 2.812128 l 1.730532,-5.5703 -0.73447,-5.856727 -2.691291,-5.771044 z"
       id="path1623"
       sodipodi:nodetypes="cccccccc" />
    <path
       style="fill:#666666;stroke:#000000;stroke-width:0.965742;stroke-linecap:butt;stroke-linejoin:miter;stroke-opacity:1"
       d="m 55.081066,65.197471 0.403704,7.860519 -1.236332,6.591548 h 2.812127 L 58.791103,73.181897 58.55357,61.80057 Z"
       id="path1621"
       sodipodi:nodetypes="ccccccc" />
    <path
       style="fill:#808080;stroke:#000000;stroke-width:0.896246;stroke-linecap:butt;stroke-linejoin:miter;stroke-opacity:1"
       d="M 53.250525,66.442507 51.345007,78.29787 h 2.812126 l 1.730538,-5.570301 2.141957,-9.802256 z"
       id="path1619" />
    <path
       style="fill:#999999;stroke:#000000;stroke-width:0.835481;stroke-linecap:butt;stroke-linejoin:miter;stroke-opacity:1"
       d="m 51.243762,66.239048 -1.905518,10.302371 h 2.812127 l 1.730536,-4.840618 2.141958,-8.518212 z"
       id="path1617" />
    <path
       style="fill:#cccccc;stroke:#000000;stroke-width:0.752833;stroke-linecap:butt;stroke-linejoin:miter;stroke-opacity:1"
       d="m 51.641716,52.606831 c 1.989777,-2.645064 5.571372,-2.848532 5.571372,-2.848532 l 2.984664,11.190632 -4.377507,5.493576 -4.576484,-0.203459 z"
       id="path1615" />
    <path
       style="fill:#b3b3b3;stroke:#000000;stroke-width:0.721182;stroke-linecap:butt;stroke-linejoin:miter;stroke-opacity:1"
       d="m 55.790115,22.729361 c 0,0 -4.439489,-15.3983103 7.491636,-15.6661086 11.931115,-0.2677896 9.57264,13.5482746 9.57264,13.5482746 0,0 -6.520495,8.277163 -17.064276,2.117834 z"
       id="path1637"
       sodipodi:nodetypes="cscc" />
    <path
       style="fill:#808080;stroke:#000000;stroke-width:0.835481;stroke-linecap:butt;stroke-linejoin:miter;stroke-opacity:1"
       d="m 55.389064,21.233136 1.081587,8.0677 7.571105,4.840627 7.787419,-5.30163 1.025216,-9.141067 -9.677905,3.608925 z"
       id="path1625"
       sodipodi:nodetypes="ccccccc" />
    <path
       style="fill:none;stroke:#000000;stroke-width:0.835481;stroke-linecap:butt;stroke-linejoin:miter;stroke-opacity:1"
       d="m 58.208649,23.888307 v 4.563787"
       id="path1627" />
    <path
       style="fill:none;stroke:#000000;stroke-width:0.835481;stroke-linecap:butt;stroke-linejoin:miter;stroke-opacity:1"
       d="m 60.350082,24.801069 v 4.563786"
       id="path1629" />
    <path
       style="fill:none;stroke:#000000;stroke-width:0.835481;stroke-linecap:butt;stroke-linejoin:miter;stroke-opacity:1"
       d="m 63.348087,25.713831 v 4.563786"
       id="path1631" />
    <path
       style="fill:none;stroke:#000000;stroke-width:0.835481;stroke-linecap:butt;stroke-linejoin:miter;stroke-opacity:1"
       d="m 66.346093,24.344688 v 4.563787"
       id="path1633" />
    <path
       style="fill:none;stroke:#000000;stroke-width:0.835481;stroke-linecap:butt;stroke-linejoin:miter;stroke-opacity:1"
       d="m 68.915811,22.975546 v 4.563787"
       id="path1635" />
    <path
       style="fill:#000000;stroke:#000000;stroke-width:0.221054px;stroke-linecap:butt;stroke-linejoin:miter;stroke-opacity:1"
       d="m 57.168527,17.303416 0.305919,2.444889 6.577257,1.792915 6.577248,-2.44489 v -2.933853 l -6.88317,2.770868 z"
       id="path1639" />
  </g>
</svg>
