<?xml version="1.0" encoding="UTF-8" standalone="no"?>
<svg
   xmlns:dc="http://purl.org/dc/elements/1.1/"
   xmlns:cc="http://creativecommons.org/ns#"
   xmlns:rdf="http://www.w3.org/1999/02/22-rdf-syntax-ns#"
   xmlns:svg="http://www.w3.org/2000/svg"
   xmlns="http://www.w3.org/2000/svg"
   xmlns:sodipodi="http://sodipodi.sourceforge.net/DTD/sodipodi-0.dtd"
   xmlns:inkscape="http://www.inkscape.org/namespaces/inkscape"
   version="1.0"
   width="300"
   height="300"
   viewBox="0 0 225.00001 225"
   preserveAspectRatio="xMidYMid meet"
   id="svg10"
   sodipodi:docname="wingsV2.svg"
   inkscape:version="1.0.1 (3bc2e813f5, 2020-09-07)">
  <defs
     id="defs14" />
  <sodipodi:namedview
     pagecolor="#ffffff"
     bordercolor="#666666"
     borderopacity="1"
     objecttolerance="10"
     gridtolerance="10"
     guidetolerance="10"
     inkscape:pageopacity="0"
     inkscape:pageshadow="2"
     inkscape:window-width="1920"
     inkscape:window-height="1001"
     id="namedview12"
     showgrid="false"
     units="px"
     inkscape:zoom="1.8003025"
     inkscape:cx="270.12263"
     inkscape:cy="197.19988"
     inkscape:window-x="-9"
     inkscape:window-y="-9"
     inkscape:window-maximized="1"
     inkscape:current-layer="g8" />
  <metadata
     id="metadata2">
Created by potrace 1.15, written by Peter Selinger 2001-2017
<rdf:RDF>
  <cc:Work
     rdf:about="">
    <dc:format>image/svg+xml</dc:format>
    <dc:type
       rdf:resource="http://purl.org/dc/dcmitype/StillImage" />
    <dc:title></dc:title>
  </cc:Work>
</rdf:RDF>
</metadata>
  <g
     transform="matrix(0.1,0,0,-0.1,-68.342169,978)"
     fill="#000000"
     stroke="none"
     id="g8">
    <path
       d="m 1088.0642,9557.1893 c -12.6808,-5.7278 -23.8398,-21.3001 -28.9121,-39.5574 -2.198,-8.4127 -2.5362,-14.4985 -1.8599,-29.5339 2.3671,-42.7793 8.9611,-104.8899 15.7242,-146.7743 44.8053,-279.408 188.1823,-507.2661 421.6772,-670.5078 100.9387,-70.5232 224.7029,-130.1279 337.1388,-162.5256 12.0045,-3.5799 21.98,-6.6228 22.4872,-6.9807 0.3382,-0.358 -7.9466,-8.0547 -18.4293,-16.8254 -21.3037,-18.0783 -55.6262,-54.4139 -73.0411,-77.504 -74.0556,-97.9091 -110.069,-217.6555 -102.7987,-340.8027 4.396,-73.3871 11.1591,-105.0689 34.8298,-166.2845 l 9.6374,-24.88 -2.8743,-7.8757 c -6.594,-18.0783 2.198,-42.9583 18.2603,-51.908 6.4249,-3.5798 21.1346,-3.0429 29.2502,0.895 10.1446,5.0118 65.0946,44.3903 86.2291,61.7526 125.624,103.9949 216.2491,237.7027 255.1367,376.7803 44.2981,157.8718 41.0857,326.1252 -9.2992,487.04 -19.951,64.0795 -54.1045,138.5406 -90.6251,197.6082 -50.5539,81.7999 -108.3781,144.6264 -185.6462,201.5462 -48.8631,35.9776 -90.2869,62.1106 -218.1088,137.2876 -250.7407,147.6692 -484.5738,281.735 -491.3368,281.556 -1.3526,-0.179 -4.5651,-1.2529 -7.4394,-2.5059 z m 30.4338,-90.9284 c 34.3226,-19.5103 171.4437,-98.9832 284.0488,-164.6736 44.6362,-26.133 100.2624,-58.1727 123.426,-71.2392 142.8697,-80.5469 165.8642,-94.3293 213.8819,-127.98 78.2825,-54.7719 131.8798,-109.0068 184.1245,-185.9738 30.941,-45.8222 67.4616,-116.1664 85.2147,-163.9576 21.4727,-58.3517 39.2257,-129.0539 45.1434,-178.993 3.2125,-27.0279 2.3671,-28.4599 -7.6084,-12.8875 -23.6708,36.6936 -87.0745,114.0186 -155.3815,189.0167 -35.1679,38.8414 -148.7874,148.5642 -161.9754,156.2609 -3.5506,2.3269 -14.7097,10.9185 -24.6852,19.1522 -136.614,113.4816 -304.6762,213.7177 -475.4436,283.5249 -13.5261,5.3698 -42.7764,16.4674 -65.0945,24.3431 -37.7041,13.6035 -40.7475,14.8564 -44.2981,20.5842 -13.8643,21.6581 -31.1101,123.5052 -35.337,208.8848 -1.1836,22.0162 -1.1836,22.7321 2.0289,21.4792 1.6908,-0.716 16.2314,-8.5917 31.9555,-17.5413 z m 54.9499,-263.6567 c 159.9465,-55.4879 336.2935,-156.4399 499.6215,-286.2099 133.0634,-105.6058 258.6873,-233.0489 335.6172,-340.2657 13.188,-18.4363 35.5061,-53.1609 35.5061,-55.4878 0,-2.5059 -8.792,4.6538 -33.4772,27.3859 -60.8676,56.2038 -108.7162,94.3293 -167.2168,133.5288 -127.1456,85.0217 -271.0299,151.7861 -436.725,202.2621 -41.931,12.8875 -117.1701,33.2927 -122.4115,33.2927 -6.7631,0 -23.5017,21.6582 -46.1579,59.9627 -39.564,66.7644 -102.6296,203.515 -107.8709,233.9438 l -1.1836,6.8018 4.7342,-1.611 c 2.7052,-0.8949 20.4582,-6.9807 39.5639,-13.6034 z m 160.6228,-318.6076 c 22.6563,-3.9378 53.4283,-11.9925 88.2581,-23.4481 187.1678,-60.6786 391.0743,-174.1602 540.0308,-300.7082 26.0378,-22.1952 59.8532,-53.161 59.8532,-54.9509 0,-3.2219 -66.109,3.2219 -105.3348,10.3816 -196.6362,35.2616 -415.4214,154.65 -555.755,303.3932 -22.9944,24.343 -55.7953,63.9005 -55.7953,67.1223 0,1.611 13.0189,0.895 28.743,-1.7899 z m 588.3868,-394.6796 c 13.5262,-1.9689 40.7475,-5.5488 60.5295,-7.6967 l 36.1824,-3.9378 -17.584,-14.3195 c -108.8854,-88.7805 -220.645,-208.8848 -300.4492,-323.0824 -8.6229,-12.3505 -16.5695,-23.09 -17.4149,-24.164 -3.2125,-3.2219 -0.1691,41.7054 4.396,65.5114 15.7241,81.7998 54.4427,167.0005 100.4315,221.0564 37.0278,43.3163 96.7119,94.3293 106.8565,91.1074 1.3526,-0.3579 13.5261,-2.5059 27.0522,-4.4748 z m 109.7308,-42.6003 c -5.9177,-6.6228 -19.6129,-22.9111 -30.4338,-36.1566 -120.8898,-149.4592 -213.882,-317.3546 -267.1411,-482.3862 -5.4105,-16.6463 -10.4828,-30.6078 -11.1591,-30.7868 -1.3526,-0.537 -7.7775,15.2144 -19.2747,47.0752 -12.8499,35.7986 -20.1202,74.2821 -20.1202,106.8588 v 18.6153 l 15.386,24.701 c 21.6418,34.9037 44.4672,66.7644 75.5773,105.4269 57.8242,71.9552 144.0533,161.2727 208.3024,215.8656 19.1057,16.1094 55.2881,42.7793 58.1624,42.9583 0.8454,0 -3.3815,-5.3698 -9.2992,-12.1715 z m 25.5306,-18.9733 c 0,-19.5102 -10.4828,-85.2006 -18.7675,-117.4194 -25.3615,-98.9831 -61.8821,-175.0552 -121.228,-252.3801 -30.772,-40.0945 -88.089,-96.8353 -121.228,-120.2834 -14.8787,-10.3815 -37.8732,-23.627 -39.0567,-22.3741 -1.3526,1.432 10.1446,35.9776 22.149,66.5854 54.95,139.7936 132.8943,278.3342 215.4037,383.0451 19.6129,24.88 59.3459,70.7022 61.2058,70.7022 0.8454,0 1.5217,-3.5798 1.5217,-7.8757 z"
       id="path4"
       style="stroke-width:0.173964" />
  </g>
</svg>
